<?xml version="1.0" encoding="UTF-8" standalone="no"?>
<!-- Created with Inkscape (http://www.inkscape.org/) -->

<svg
   xmlns:dc="http://purl.org/dc/elements/1.1/"
   xmlns:cc="http://creativecommons.org/ns#"
   xmlns:rdf="http://www.w3.org/1999/02/22-rdf-syntax-ns#"
   xmlns:svg="http://www.w3.org/2000/svg"
   xmlns="http://www.w3.org/2000/svg"
   xmlns:sodipodi="http://sodipodi.sourceforge.net/DTD/sodipodi-0.dtd"
   xmlns:inkscape="http://www.inkscape.org/namespaces/inkscape"
   width="124.95874mm"
   height="125mm"
   viewBox="0 0 124.95874 125"
   version="1.1"
   id="svg8"
   inkscape:version="0.92.3 (2405546, 2018-03-11)"
   sodipodi:docname="flor_de_lis.svg">
  <defs
     id="defs2" />
  <sodipodi:namedview
     id="base"
     pagecolor="#ffffff"
     bordercolor="#666666"
     borderopacity="1.0"
     inkscape:pageopacity="0.0"
     inkscape:pageshadow="2"
     inkscape:zoom="0.35"
     inkscape:cx="377.33925"
     inkscape:cy="-46.857688"
     inkscape:document-units="mm"
     inkscape:current-layer="layer1"
     showgrid="false"
     fit-margin-top="0"
     fit-margin-left="0"
     fit-margin-right="0"
     fit-margin-bottom="0"
     inkscape:window-width="1280"
     inkscape:window-height="973"
     inkscape:window-x="0"
     inkscape:window-y="0"
     inkscape:window-maximized="1" />
  <metadata
     id="metadata5">
    <rdf:RDF>
      <cc:Work
         rdf:about="">
        <dc:format>image/svg+xml</dc:format>
        <dc:type
           rdf:resource="http://purl.org/dc/dcmitype/StillImage" />
        <dc:title></dc:title>
      </cc:Work>
    </rdf:RDF>
  </metadata>
  <g
     inkscape:label="Camada 1"
     inkscape:groupmode="layer"
     id="layer1"
     transform="translate(-7.5075615,-11.43557)">
    <path
       style="fill:#572d90;fill-opacity:1;stroke-width:0.26378506"
       d="m 67.348302,135.24264 c -4.573151,-2.60613 -9.477381,-7.05681 -12.055987,-10.94104 -2.327467,-3.50594 -2.299392,-3.36997 -1.069983,-5.1811 2.109208,-3.10724 4.290956,-8.03442 5.298048,-11.96494 0.875969,-3.41873 0.887873,-3.61676 0.22806,-3.79368 -1.208673,-0.32407 -2.03222,-0.18833 -2.03222,0.33497 0,0.96499 -1.365807,5.19562 -2.367267,7.33267 -1.948414,4.15782 -4.21667,6.91203 -6.931115,8.41605 -1.257186,0.69659 -1.616559,0.76736 -3.896419,0.76736 -2.297817,0 -2.658934,-0.0726 -4.244157,-0.85299 -3.041765,-1.49745 -5.697529,-5.02063 -6.200377,-8.2255 -0.168271,-1.07247 -0.142898,-1.14949 0.319573,-0.97035 1.207755,0.46781 3.467946,0.948 4.448598,0.94512 2.616981,-0.008 5.35664,-1.25482 7.236392,-3.29411 1.193867,-1.29519 2.584828,-3.97615 2.718244,-5.23917 0.07627,-0.72163 -0.006,-0.78266 -1.863212,-1.39101 -2.330517,-0.76319 -4.565604,-2.187396 -5.301556,-3.378192 -0.567643,-0.918461 -0.705605,-2.578677 -0.301259,-3.6254 0.536935,-1.389983 2.145258,-2.596851 4.859395,-3.646435 2.168737,-0.838672 2.128708,-0.681348 0.935858,-3.678528 -1.594345,-4.006008 -4.26933,-7.280648 -7.07166,-8.656914 -1.299239,-0.638079 -1.76465,-0.719702 -4.103313,-0.719702 -2.348424,0 -2.801124,0.08016 -4.125994,0.730809 -3.751797,1.842454 -5.928759,6.405277 -5.298905,11.106321 l 0.234171,1.747801 -1.867369,-0.004 C 19.847295,91.050124 15.297962,88.703206 11.894541,84.353489 10.171506,82.151372 9.1647219,80.236039 8.4151403,77.73415 5.002268,66.342991 11.521829,54.33099 22.819701,51.194402 c 2.656222,-0.737438 7.528448,-0.788643 10.100724,-0.106159 6.636606,1.760852 12.450533,6.486581 17.053554,13.861623 2.644995,4.237846 5.394276,10.773179 6.548413,15.566275 0.610892,2.537003 1.183439,5.813139 1.188962,6.803302 l 0.005,0.871084 1.384869,-0.07976 1.38488,-0.07976 -0.08474,-0.923246 C 59.947797,82.165609 57.344285,74.305076 53.106031,65.081707 51.710065,62.04378 49.307446,56.147982 48.705338,54.282836 c -1.409774,-4.367075 -1.6525,-5.912558 -1.638941,-10.43583 0.01186,-3.962868 0.07747,-4.564816 0.732783,-6.725065 2.095339,-6.907294 5.843108,-12.109616 12.405669,-17.220473 3.522869,-2.743577 7.295722,-5.956717 8.693273,-7.403606 l 1.026065,-1.062292 2.666919,2.396203 c 1.466812,1.317911 4.631296,3.967008 7.03218,5.886883 5.517783,4.412301 8.121653,7.370957 10.465161,11.891091 2.10852,4.066863 2.975097,7.667328 2.975097,12.360895 0,6.089343 -1.186409,10.154142 -6.277264,21.506748 -3.891534,8.678119 -5.573324,13.430049 -6.644852,18.775144 -0.788823,3.934883 -0.793688,3.910367 0.776042,3.910367 1.272978,0 1.310225,-0.02233 1.432236,-0.857296 0.499678,-3.419701 0.824465,-5.123585 1.381808,-7.249213 3.349105,-12.772898 11.093809,-23.717647 19.470796,-27.515953 3.10524,-1.40798 5.22276,-1.85058 8.85375,-1.85058 3.54462,0 5.63715,0.420587 8.59032,1.726625 4.3961,1.944157 8.62721,6.503819 10.44711,11.258311 1.15889,3.027598 1.36383,4.222412 1.37245,8.001536 0.007,3.131334 -0.0844,3.993884 -0.60253,5.671388 -1.17256,3.797 -2.97387,6.66862 -5.85826,9.339129 -3.1064,2.876046 -6.78696,4.377592 -10.7307,4.377772 l -1.76757,8e-5 v -3.236097 c 0,-3.142012 -0.0258,-3.288669 -0.88985,-5.044555 -1.09218,-2.219633 -2.51932,-3.687322 -4.47871,-4.605952 -1.28397,-0.601968 -1.83614,-0.698466 -3.9958,-0.698287 -2.0472,1.6e-4 -2.74357,0.109728 -3.80388,0.598559 -2.5051,1.154895 -4.629661,3.364349 -6.40777,6.663814 -0.842192,1.562771 -1.922473,4.278693 -1.922473,4.833264 0,0.185688 0.623194,0.536716 1.38488,0.78007 1.998123,0.638408 4.010045,1.87362 4.854021,2.980132 1.045875,1.37121 1.038397,3.328866 -0.01805,4.713875 -1.002905,1.314881 -2.648704,2.320257 -5.034186,3.075247 -1.785357,0.56506 -1.969041,0.68728 -1.973338,1.31303 -0.008,1.10345 1.707593,4.22247 3.072542,5.58742 0.690261,0.69026 1.912433,1.57817 2.715921,1.97311 1.294533,0.63632 1.76131,0.7181 4.098763,0.71814 1.90737,4e-5 2.94978,-0.12777 3.76428,-0.46156 0.61954,-0.2539 1.16805,-0.46163 1.21892,-0.46163 0.29633,0 -0.49475,2.76419 -1.20788,4.22056 -2.12495,4.33959 -6.898515,6.954 -11.101357,6.08003 -1.994105,-0.41466 -4.43143,-2.06043 -6.058087,-4.09062 -2.156644,-2.69166 -4.454799,-7.67992 -5.200453,-11.28783 -0.302584,-1.46409 -0.342593,-1.51663 -1.152074,-1.51273 -1.479114,0.007 -1.619937,0.24799 -1.254743,2.14618 0.794536,4.12975 3.391826,10.35951 5.793578,13.89626 l 1.033284,1.52159 -0.831295,1.45578 c -2.285155,4.00185 -6.367551,8.31865 -10.602176,11.21094 -2.639942,1.80311 -4.873413,3.00213 -5.592208,3.00213 -0.262226,0 -1.418886,-0.53689 -2.570352,-1.19307 z M 70.9045,119.69066 c 0.668079,-3.63629 2.082269,-14.13486 2.106027,-15.63457 0.004,-0.24412 -0.748176,-0.32973 -2.896415,-0.32973 h -2.901629 v 1.20245 c 0,0.66135 0.110475,1.99676 0.245517,2.96758 0.135031,0.97083 0.380468,2.89282 0.545409,4.2711 0.38003,3.1756 0.952797,6.70355 1.494189,9.20359 0.516417,2.38463 0.70043,2.16485 1.406902,-1.68042 z m 1.694004,-31.951517 c 0.355365,-0.136367 0.41653,-0.752572 0.412432,-4.154617 -0.008,-6.986578 -0.746112,-23.316592 -1.71166,-37.890878 -0.216266,-3.264342 -0.512838,-7.775072 -0.659046,-10.023837 -0.268717,-4.133057 -0.516776,-6.428102 -0.67744,-6.267444 -0.111682,0.111687 -0.911492,11.472802 -1.694702,24.072933 -0.913106,14.690026 -1.402097,33.725762 -0.879747,34.248101 0.219844,0.219845 4.643448,0.233214 5.210163,0.01575 z m -46.841831,-15.994419 0.9648,-1.514457 3.692985,-0.01007 3.692995,-0.01007 -0.923247,-0.830517 c -0.507783,-0.456786 -1.664832,-1.496061 -2.571199,-2.30949 l -1.647953,-1.478954 1.19949,-2.725513 c 0.659714,-1.499023 1.147936,-2.777046 1.084927,-2.840055 -0.06301,-0.06301 -1.412775,0.407277 -2.999493,1.045077 l -2.88494,1.159621 -2.447025,-1.673725 c -1.345867,-0.920534 -2.49478,-1.673715 -2.553154,-1.673715 -0.05832,0 -0.106119,1.405178 -0.106119,3.1226 v 3.122601 l -2.366708,1.691481 c -1.301691,0.930315 -2.370018,1.765059 -2.374065,1.854997 -0.008,0.177812 2.210002,0.639056 4.403743,0.915779 1.570956,0.19816 1.462096,0.01047 2.051632,3.536937 0.636314,3.806301 0.564522,3.732674 1.766783,1.812076 0.57847,-0.924104 1.485914,-2.361683 2.016548,-3.194643 z m 92.071307,3.163118 c 0.14846,-0.761675 0.42395,-2.215794 0.61221,-3.231371 l 0.34228,-1.846492 1.45082,-0.217811 c 0.79794,-0.119798 2.16303,-0.360699 3.03353,-0.53535 l 1.58271,-0.317539 -2.5625,-1.899861 -2.56248,-1.899851 0.16283,-3.038336 c 0.0895,-1.671083 0.0808,-3.038335 -0.0195,-3.038335 -0.1003,0 -1.24159,0.712224 -2.53619,1.58271 -1.2946,0.870496 -2.50676,1.57951 -2.69368,1.575582 -0.18691,-0.004 -1.5205,-0.475212 -2.96352,-1.04733 -1.44302,-0.572109 -2.67897,-0.98491 -2.74656,-0.917324 -0.0676,0.06759 0.39747,1.327343 1.03346,2.799448 l 1.15636,2.676571 -2.49847,2.325552 -2.49846,2.325563 3.68081,0.07697 3.6808,0.07697 1.85868,2.966952 c 1.02228,1.631821 1.9393,2.96724 2.03783,2.967579 0.0985,2.69e-4 0.30061,-0.622556 0.44908,-1.384241 z"
       id="path21"
       inkscape:connector-curvature="0" />
  </g>
</svg>
