<?xml version="1.0" encoding="UTF-8" standalone="no"?>
<!-- Created with Inkscape (http://www.inkscape.org/) -->

<svg
   xmlns:dc="http://purl.org/dc/elements/1.1/"
   xmlns:cc="http://creativecommons.org/ns#"
   xmlns:rdf="http://www.w3.org/1999/02/22-rdf-syntax-ns#"
   xmlns:svg="http://www.w3.org/2000/svg"
   xmlns="http://www.w3.org/2000/svg"
   xmlns:sodipodi="http://sodipodi.sourceforge.net/DTD/sodipodi-0.dtd"
   xmlns:inkscape="http://www.inkscape.org/namespaces/inkscape"
   width="13.632591mm"
   height="22.577778mm"
   viewBox="0 0 48.304457 80"
   id="svg7107"
   version="1.1"
   inkscape:version="0.91 r13725"
   sodipodi:docname="icon-scout-m.svg">
  <defs
     id="defs7109" />
  <sodipodi:namedview
     id="base"
     pagecolor="#ffffff"
     bordercolor="#666666"
     borderopacity="1.0"
     inkscape:pageopacity="0.0"
     inkscape:pageshadow="2"
     inkscape:zoom="8.6250001"
     inkscape:cx="24.152229"
     inkscape:cy="39.999997"
     inkscape:document-units="px"
     inkscape:current-layer="layer1"
     showgrid="false"
     fit-margin-top="0"
     fit-margin-left="0"
     fit-margin-right="0"
     fit-margin-bottom="0"
     inkscape:window-width="1600"
     inkscape:window-height="874"
     inkscape:window-x="1280"
     inkscape:window-y="0"
     inkscape:window-maximized="1" />
  <metadata
     id="metadata7112">
    <rdf:RDF>
      <cc:Work
         rdf:about="">
        <dc:format>image/svg+xml</dc:format>
        <dc:type
           rdf:resource="http://purl.org/dc/dcmitype/StillImage" />
        <dc:title></dc:title>
      </cc:Work>
    </rdf:RDF>
  </metadata>
  <g
     inkscape:label="Camada 1"
     inkscape:groupmode="layer"
     id="layer1"
     transform="translate(-71.869054,-130.56035)">
    <g
       id="g7769"
       transform="matrix(2.1980281,0,0,2.1980281,1810.4832,-1074.9477)">
      <g
         transform="matrix(0.06290492,0,0,-0.06290492,-786.05246,561.73339)"
         id="g5298">
        <path
           inkscape:connector-curvature="0"
           id="path5300"
           style="fill:#dfb18d;fill-opacity:1;fill-rule:nonzero;stroke:none"
           d="m 0,0 c 0,-13.234 -10.728,-23.964 -23.963,-23.964 -13.233,0 -23.962,10.73 -23.962,23.964 0,13.234 10.729,23.963 23.962,23.963 C -10.728,23.963 0,13.234 0,0" />
      </g>
      <g
         transform="matrix(0.06290492,0,0,-0.06290492,-786.39666,561.73339)"
         id="g5302">
        <path
           inkscape:connector-curvature="0"
           id="path5304"
           style="fill:#cfa484;fill-opacity:1;fill-rule:nonzero;stroke:none"
           d="m 0,0 c 0,-10.212 -8.278,-18.491 -18.491,-18.491 -10.211,0 -18.49,8.279 -18.49,18.491 0,10.212 8.279,18.489 18.49,18.489 C -8.278,18.489 0,10.212 0,0" />
      </g>
      <g
         transform="matrix(0.06290492,0,0,-0.06290492,-771.14761,561.73339)"
         id="g5306">
        <path
           inkscape:connector-curvature="0"
           id="path5308"
           style="fill:#dfb18d;fill-opacity:1;fill-rule:nonzero;stroke:none"
           d="m 0,0 c 0,-13.234 -10.729,-23.964 -23.964,-23.964 -13.234,0 -23.963,10.73 -23.963,23.964 0,13.234 10.729,23.963 23.963,23.963 C -10.729,23.963 0,13.234 0,0" />
      </g>
      <g
         transform="matrix(0.06290492,0,0,-0.06290492,-771.49194,561.73339)"
         id="g5310">
        <path
           inkscape:connector-curvature="0"
           id="path5312"
           style="fill:#cfa484;fill-opacity:1;fill-rule:nonzero;stroke:none"
           d="m 0,0 c 0,-10.212 -8.278,-18.491 -18.49,-18.491 -10.211,0 -18.49,8.279 -18.49,18.491 0,10.212 8.279,18.489 18.49,18.489 C -8.278,18.489 0,10.212 0,0" />
      </g>
      <g
         transform="matrix(0.06290492,0,0,-0.06290492,-772.23371,559.64187)"
         id="g5314">
        <path
           inkscape:connector-curvature="0"
           id="path5316"
           style="fill:#dfb18d;fill-opacity:1;fill-rule:nonzero;stroke:none"
           d="m 0,0 c 0,69.351 -56.221,125.571 -125.571,125.571 -69.351,0 -125.571,-56.22 -125.571,-125.571 0,-63.869 47.685,-116.6 109.396,-124.536 l 0,-38.97 c 0,-3.685 2.988,-6.673 6.673,-6.673 l 17.163,0 c 3.684,0 6.674,2.988 6.674,6.673 l 0,38.754 C -48.638,-117.637 0,-64.503 0,0" />
      </g>
      <g
         transform="matrix(0.10204082,0,0,-0.10204082,-790.32293,575.6849)"
         id="g5318">
        <path
           inkscape:connector-curvature="0"
           id="path5320"
           style="fill:#d7aa89;fill-opacity:1;fill-rule:nonzero;stroke:none"
           d="m 0,0 -6.519,-87.858 26.811,0 15.479,86.76 L 0,0 Z" />
      </g>
      <g
         transform="matrix(0.10204082,0,0,-0.10204082,-772.9736,575.92605)"
         id="g5322">
        <path
           inkscape:connector-curvature="0"
           id="path5324"
           style="fill:#d7aa89;fill-opacity:1;fill-rule:nonzero;stroke:none"
           d="m 0,0 6.104,-43.951 3.404,-43.465 29.317,1.921 -2.442,44.229 L 31.744,5.074 0,0 Z" />
      </g>
      <g
         transform="matrix(0.10204082,0,0,-0.10204082,-780.04202,570.65839)"
         id="g5326">
        <path
           inkscape:connector-curvature="0"
           id="path5328"
           style="fill:#969640;fill-opacity:1;fill-rule:nonzero;stroke:none"
           d="m 0,0 -15.439,36.402 -33.728,-6.47 2.844,-4.045 c 0,0 -46.729,-3.642 -52.416,-32.359 -5.689,-28.717 -8.532,-47.324 -8.532,-47.324 l 43.07,-2.831 4.063,32.762 4.469,-113.253 111.336,0 4.47,113.253 4.063,-32.762 43.072,2.831 c 0,0 -2.845,18.607 -8.533,47.324 C 93.052,22.245 46.321,25.887 46.321,25.887 L 49.167,29.932 15.44,36.402 0,0 Z" />
      </g>
      <g
         transform="matrix(0.10204082,0,0,-0.10204082,-775.31535,568.01689)"
         id="g5330">
        <path
           inkscape:connector-curvature="0"
           id="path5332"
           style="fill:#806f29;fill-opacity:1;fill-rule:nonzero;stroke:none"
           d="m 0,0 2.846,4.045 -33.727,6.471 -15.44,-36.403 -15.44,36.403 L -95.488,4.045 -92.645,0 c 0,0 -46.728,-3.642 -52.416,-32.358 -5.688,-28.718 -8.532,-47.325 -8.532,-47.325 l 7.253,-0.476 c 1.358,8.445 4.121,24.78 7.826,42.331 5.368,25.436 55.112,29.11 55.112,29.11 L -46.66,-32.74 -3.095,-6.224 c 21.208,0.091 36.612,-5.23 45.457,-9.43 C 26.896,-2.101 0,0 0,0" />
      </g>
      <g
         transform="matrix(0.10204082,0,0,-0.10204082,-785.0489,572.25806)"
         id="g5334">
        <path
           inkscape:connector-curvature="0"
           id="path5336"
           style="fill:#f5c885;fill-opacity:1;fill-rule:nonzero;stroke:none"
           d="m 0,0 c 0,-3.636 -2.947,-6.585 -6.584,-6.585 -3.636,0 -6.584,2.949 -6.584,6.585 0,3.636 2.948,6.583 6.584,6.583 C -2.947,6.583 0,3.636 0,0" />
      </g>
      <g
         transform="matrix(0.10204082,0,0,-0.10204082,-785.0489,572.25806)"
         id="g5338">
        <path
           inkscape:connector-curvature="0"
           id="path5340"
           style="fill:none;stroke:#662d91;stroke-width:0.71899998;stroke-linecap:butt;stroke-linejoin:miter;stroke-miterlimit:10;stroke-dasharray:none;stroke-opacity:1"
           d="m 0,0 c 0,-3.636 -2.947,-6.585 -6.584,-6.585 -3.636,0 -6.584,2.949 -6.584,6.585 0,3.636 2.948,6.583 6.584,6.583 C -2.947,6.583 0,3.636 0,0 Z" />
      </g>
      <g
         transform="matrix(0.10204082,0,0,-0.10204082,-783.45261,572.25806)"
         id="g5342">
        <path
           inkscape:connector-curvature="0"
           id="path5344"
           style="fill:#a2d7d1;fill-opacity:1;fill-rule:nonzero;stroke:none"
           d="m 0,0 c 0,-3.636 -2.947,-6.585 -6.584,-6.585 -3.636,0 -6.584,2.949 -6.584,6.585 0,3.636 2.948,6.583 6.584,6.583 C -2.947,6.583 0,3.636 0,0" />
      </g>
      <g
         transform="matrix(0.10204082,0,0,-0.10204082,-783.45261,572.25806)"
         id="g5346">
        <path
           inkscape:connector-curvature="0"
           id="path5348"
           style="fill:none;stroke:#ed1c24;stroke-width:0.71899998;stroke-linecap:butt;stroke-linejoin:miter;stroke-miterlimit:10;stroke-dasharray:none;stroke-opacity:1"
           d="m 0,0 c 0,-3.636 -2.947,-6.585 -6.584,-6.585 -3.636,0 -6.584,2.949 -6.584,6.585 0,3.636 2.948,6.583 6.584,6.583 C -2.947,6.583 0,3.636 0,0 Z" />
      </g>
      <g
         transform="matrix(0.10204082,0,0,-0.10204082,-781.85633,572.25806)"
         id="g5350">
        <path
           inkscape:connector-curvature="0"
           id="path5352"
           style="fill:#c8d94f;fill-opacity:1;fill-rule:nonzero;stroke:none"
           d="m 0,0 c 0,-3.636 -2.946,-6.585 -6.583,-6.585 -3.637,0 -6.584,2.949 -6.584,6.585 0,3.636 2.947,6.583 6.584,6.583 C -2.946,6.583 0,3.636 0,0" />
      </g>
      <g
         transform="matrix(0.10204082,0,0,-0.10204082,-781.85633,572.25806)"
         id="g5354">
        <path
           inkscape:connector-curvature="0"
           id="path5356"
           style="fill:none;stroke:#39b54a;stroke-width:0.71899998;stroke-linecap:butt;stroke-linejoin:miter;stroke-miterlimit:10;stroke-dasharray:none;stroke-opacity:1"
           d="m 0,0 c 0,-3.636 -2.946,-6.585 -6.583,-6.585 -3.637,0 -6.584,2.949 -6.584,6.585 0,3.636 2.947,6.583 6.584,6.583 C -2.946,6.583 0,3.636 0,0 Z" />
      </g>
      <g
         transform="matrix(0.10204082,0,0,-0.10204082,-776.81577,572.25806)"
         id="g5358">
        <path
           inkscape:connector-curvature="0"
           id="path5360"
           style="fill:#fccd7b;fill-opacity:1;fill-rule:nonzero;stroke:none"
           d="m 0,0 c 0,-3.636 -2.947,-6.585 -6.584,-6.585 -3.637,0 -6.585,2.949 -6.585,6.585 0,3.636 2.948,6.583 6.585,6.583 C -2.947,6.583 0,3.636 0,0" />
      </g>
      <g
         transform="matrix(0.10204082,0,0,-0.10204082,-776.81577,572.25806)"
         id="g5362">
        <path
           inkscape:connector-curvature="0"
           id="path5364"
           style="fill:none;stroke:#f7941e;stroke-width:0.71899998;stroke-linecap:butt;stroke-linejoin:miter;stroke-miterlimit:10;stroke-dasharray:none;stroke-opacity:1"
           d="m 0,0 c 0,-3.636 -2.947,-6.585 -6.584,-6.585 -3.637,0 -6.585,2.949 -6.585,6.585 0,3.636 2.948,6.583 6.585,6.583 C -2.947,6.583 0,3.636 0,0 Z" />
      </g>
      <g
         transform="matrix(0.10204082,0,0,-0.10204082,-775.2195,572.25806)"
         id="g5366">
        <path
           inkscape:connector-curvature="0"
           id="path5368"
           style="fill:#aad7d2;fill-opacity:1;fill-rule:nonzero;stroke:none"
           d="m 0,0 c 0,-3.636 -2.947,-6.585 -6.584,-6.585 -3.637,0 -6.584,2.949 -6.584,6.585 0,3.636 2.947,6.583 6.584,6.583 C -2.947,6.583 0,3.636 0,0" />
      </g>
      <g
         transform="matrix(0.10204082,0,0,-0.10204082,-775.2195,572.25806)"
         id="g5370">
        <path
           inkscape:connector-curvature="0"
           id="path5372"
           style="fill:none;stroke:#27aae1;stroke-width:0.71899998;stroke-linecap:butt;stroke-linejoin:miter;stroke-miterlimit:10;stroke-dasharray:none;stroke-opacity:1"
           d="m 0,0 c 0,-3.636 -2.947,-6.585 -6.584,-6.585 -3.637,0 -6.584,2.949 -6.584,6.585 0,3.636 2.947,6.583 6.584,6.583 C -2.947,6.583 0,3.636 0,0 Z" />
      </g>
      <g
         transform="matrix(0.10204082,0,0,-0.10204082,-773.62311,572.25806)"
         id="g5374">
        <path
           inkscape:connector-curvature="0"
           id="path5376"
           style="fill:#c6c84b;fill-opacity:1;fill-rule:nonzero;stroke:none"
           d="m 0,0 c 0,-3.636 -2.948,-6.585 -6.584,-6.585 -3.637,0 -6.584,2.949 -6.584,6.585 0,3.636 2.947,6.583 6.584,6.583 C -2.948,6.583 0,3.636 0,0" />
      </g>
      <g
         transform="matrix(0.10204082,0,0,-0.10204082,-773.62311,572.25806)"
         id="g5378">
        <path
           inkscape:connector-curvature="0"
           id="path5380"
           style="fill:none;stroke:#39b54a;stroke-width:0.71899998;stroke-linecap:butt;stroke-linejoin:miter;stroke-miterlimit:10;stroke-dasharray:none;stroke-opacity:1"
           d="m 0,0 c 0,-3.636 -2.948,-6.585 -6.584,-6.585 -3.637,0 -6.584,2.949 -6.584,6.585 0,3.636 2.947,6.583 6.584,6.583 C -2.948,6.583 0,3.636 0,0 Z" />
      </g>
      <path
         inkscape:connector-curvature="0"
         id="path5382"
         style="fill:#767429;fill-opacity:1;fill-rule:nonzero;stroke:none"
         d="m -774.5638,577.32377 -3.60725,0 0,-3.83091 3.60725,0 0,3.83091 z" />
      <g
         transform="matrix(0.10204082,0,0,-0.10204082,-776.36746,575.16084)"
         id="g5384">
        <path
           inkscape:connector-curvature="0"
           id="path5386"
           style="fill:#969640;fill-opacity:1;fill-rule:nonzero;stroke:none"
           d="m 0,0 -16.262,14.279 32.526,0 L 0,0 Z" />
      </g>
      <g
         transform="matrix(0.10204082,0,0,-0.10204082,-783.35266,568.67737)"
         id="g5388">
        <path
           inkscape:connector-curvature="0"
           id="path5390"
           style="fill:#d11523;fill-opacity:1;fill-rule:nonzero;stroke:none"
           d="m 0,0 25.887,-23.864 12.943,0 25.886,27.1 L 32.357,-17.796 0,0 Z" />
      </g>
      <g
         transform="matrix(0.10204082,0,0,-0.10204082,-778.97766,571.05041)"
         id="g5392">
        <path
           inkscape:connector-curvature="0"
           id="path5394"
           style="fill:#a51a21;fill-opacity:1;fill-rule:nonzero;stroke:none"
           d="m 0,0 c 0,-3.687 -2.989,-6.675 -6.675,-6.675 l -7.368,0 c -3.686,0 -6.675,2.988 -6.675,6.675 l 0,2.427 c 0,3.685 2.989,6.673 6.675,6.673 l 7.368,0 C -2.989,9.1 0,6.112 0,2.427 L 0,0 Z" />
      </g>
      <g
         transform="matrix(0.10204082,0,0,-0.10204082,-780.7008,571.34139)"
         id="g5396">
        <path
           inkscape:connector-curvature="0"
           id="path5398"
           style="fill:#be1421;fill-opacity:1;fill-rule:nonzero;stroke:none"
           d="m 0,0 c 0,0 -15.528,1.672 -13.773,-25.115 3.241,-49.42 16.001,-91.548 16.001,-92.156 C 2.228,-117.879 27.343,-2.835 0,0" />
      </g>
      <g
         transform="matrix(0.10204082,0,0,-0.10204082,-779.78204,571.33939)"
         id="g5400">
        <path
           inkscape:connector-curvature="0"
           id="path5402"
           style="fill:#be1421;fill-opacity:1;fill-rule:nonzero;stroke:none"
           d="m 0,0 c 0,0 -7.493,-6.299 -2.477,-17.641 5.018,-11.341 18.386,-28.154 30.741,-38.28 0,0 4.05,17.035 -0.81,27.961 C 22.592,-17.033 8.396,7.516 0,0" />
      </g>
      <g
         transform="matrix(0.06290492,0,0,-0.06290492,-787.73498,560.57033)"
         id="g5404">
        <path
           inkscape:connector-curvature="0"
           id="path5406"
           style="fill:#231f20;fill-opacity:1;fill-rule:nonzero;stroke:none"
           d="m 0,0 c 0,0 4.534,29.784 8.693,39.989 4.159,10.205 6.71,40.034 11.103,49.311 4.394,9.276 71.169,23.914 86.796,13.813 15.627,-10.1 75.973,-17.765 70.304,1.134 0,0 46.492,-26.082 54.053,-66.903 7.559,-40.823 14.363,-38.794 17.01,-31.87 2.645,6.922 3.021,48.123 3.779,56.439 0.756,8.315 0.446,35.9 -3.023,50.273 -3.469,14.373 -48.603,62.321 -65.99,69.881 -17.388,7.559 -41.82,10.963 -73.193,10.585 C 78.16,192.274 -0.24,145.825 -1.255,126.171 -2.268,106.517 -14.021,88.373 -13.059,60.023 -12.097,31.674 -7.677,-3.245 0,0" />
      </g>
    </g>
  </g>
</svg>
