<?xml version="1.0" encoding="UTF-8" standalone="no"?>
<!-- Created with Inkscape (http://www.inkscape.org/) -->

<svg
   xmlns:dc="http://purl.org/dc/elements/1.1/"
   xmlns:cc="http://creativecommons.org/ns#"
   xmlns:rdf="http://www.w3.org/1999/02/22-rdf-syntax-ns#"
   xmlns:svg="http://www.w3.org/2000/svg"
   xmlns="http://www.w3.org/2000/svg"
   xmlns:sodipodi="http://sodipodi.sourceforge.net/DTD/sodipodi-0.dtd"
   xmlns:inkscape="http://www.inkscape.org/namespaces/inkscape"
   width="280.54462mm"
   height="381.30481mm"
   viewBox="0 0 994.05573 1351.08"
   id="svg4757"
   version="1.1"
   inkscape:version="0.91 r13725"
   sodipodi:docname="escoteiros_do_brasil.svg">
  <defs
     id="defs4759" />
  <sodipodi:namedview
     id="base"
     pagecolor="#ffffff"
     bordercolor="#666666"
     borderopacity="1.0"
     inkscape:pageopacity="0.0"
     inkscape:pageshadow="2"
     inkscape:zoom="0.35"
     inkscape:cx="-35.115087"
     inkscape:cy="817.15134"
     inkscape:document-units="px"
     inkscape:current-layer="layer1"
     showgrid="false"
     fit-margin-top="0"
     fit-margin-left="0"
     fit-margin-right="0"
     fit-margin-bottom="0"
     inkscape:window-width="1600"
     inkscape:window-height="874"
     inkscape:window-x="1280"
     inkscape:window-y="0"
     inkscape:window-maximized="1" />
  <metadata
     id="metadata4762">
    <rdf:RDF>
      <cc:Work
         rdf:about="">
        <dc:format>image/svg+xml</dc:format>
        <dc:type
           rdf:resource="http://purl.org/dc/dcmitype/StillImage" />
        <dc:title></dc:title>
      </cc:Work>
    </rdf:RDF>
  </metadata>
  <g
     inkscape:label="Camada 1"
     inkscape:groupmode="layer"
     id="layer1"
     transform="translate(39.884913,1.566456)">
    <g
       transform="matrix(4.8376237,0,0,4.8376237,-1543.0328,-273.90347)"
       id="Layer1001">
      <g
         id="Layer1002">
        <path
           inkscape:connector-curvature="0"
           id="path7"
           style="fill:#00a6b7;fill-rule:evenodd"
           d="m 334.0123,322.1578 -1.3851,0 0,-1.8304 6.0753,0 c 4.5666,0 7.5821,2.7423 7.5821,7.4787 0,4.7596 -3.0155,7.5175 -7.5821,7.5175 l -3.3339,0 c -0.9581,0 -1.3563,-0.4023 -1.3563,-1.3573 l 0,-11.8085 z m 2.5888,11.3417 0,0 1.9531,0 c 3.3378,0 5.5225,-1.9982 5.5225,-5.6934 0,-3.6709 -2.2091,-5.6483 -5.5225,-5.6483 l -2.4211,0 0,10.8759 c 0,0.2948 0.171,0.4658 0.468,0.4658 z" />
        <path
           inkscape:connector-curvature="0"
           id="path9"
           style="fill:#00a6b7;fill-rule:evenodd"
           d="m 361.4907,320.0757 c 4.3351,0 7.7108,3.335 7.7108,7.6473 0,4.419 -3.3757,7.8585 -7.7108,7.8585 -4.3321,0 -7.6867,-3.4395 -7.6867,-7.8585 0,-4.3123 3.3546,-7.6473 7.6867,-7.6473 z m 0,13.5068 0,0 c 3.041,0 5.5038,-2.548 5.5038,-5.8595 0,-3.2079 -2.4628,-5.6727 -5.5038,-5.6727 -3.0342,0 -5.4796,2.4648 -5.4796,5.6727 0,3.3115 2.4454,5.8595 5.4796,5.8595 z" />
        <path
           inkscape:connector-curvature="0"
           id="path11"
           style="fill:#00a6b7;fill-rule:evenodd"
           d="m 390.5464,322.1578 -1.3799,0 0,-1.8304 6.4131,0 c 2.5263,0 4.3523,1.4074 4.3523,3.8262 0,1.6348 -0.8699,2.7394 -1.8671,3.2295 l 0,0.042 c 1.591,0.4649 2.461,1.9514 2.461,3.6349 0,2.8221 -2.1631,4.2636 -4.8195,4.2636 l -3.8035,0 c -0.9561,0 -1.3564,-0.4023 -1.3564,-1.3573 l 0,-11.8085 z m 5.0536,4.4821 0,0 c 1.3164,0 2.164,-0.959 2.164,-2.2694 0,-1.3224 -0.8036,-2.2127 -2.2059,-2.2127 l -2.8888,0 0,4.4821 2.9307,0 z m -2.465,6.8596 0,0 2.679,0 c 1.5909,0 2.5263,-1.0197 2.5263,-2.547 0,-1.5332 -0.997,-2.5721 -2.5263,-2.5721 l -3.1447,0 0,4.6533 c 0,0.2948 0.1689,0.4658 0.4657,0.4658 z" />
        <path
           inkscape:connector-curvature="0"
           id="path13"
           style="fill:#00a6b7;fill-rule:evenodd"
           d="m 409.3617,322.1578 -1.3808,0 0,-1.8304 6.5429,0 c 2.632,0 4.4765,1.6594 4.4765,4.4017 0,2.5038 -1.6336,3.7352 -2.6943,3.9696 l 0,0.0408 c 0,0 0.3798,0.1897 0.6378,0.6798 l 1.8045,3.5918 c 0.212,0.4436 0.5539,0.4884 1.0636,0.4884 l 0.2744,0 0,1.8241 -1.0389,0 c -1.1702,0 -1.5948,-0.1466 -2.0812,-1.1228 l -2.0398,-4.0354 c -0.3838,-0.703 -0.6582,-0.8113 -1.4885,-0.8113 l -1.957,0 0,5.9695 -2.1192,0 0,-13.1658 z m 4.8838,5.3719 0,0 c 1.6152,0 2.5685,-1.038 2.5685,-2.7179 0,-1.6775 -0.9533,-2.654 -2.5234,-2.654 l -2.8097,0 0,5.3719 2.7646,0 z" />
        <path
           inkscape:connector-curvature="0"
           id="path15"
           style="fill:#00a6b7;fill-rule:evenodd"
           d="m 427.1,333.4995 0.2948,0 c 0.3819,0 0.5755,-0.0859 0.7025,-0.4658 l 4.6981,-12.7063 2.2275,0 4.6961,12.7063 c 0.1222,0.3799 0.3371,0.4658 0.6973,0.4658 l 0.3243,0 0,1.8241 -1.1962,0 c -1.0596,0 -1.3995,-0.2537 -1.7413,-1.2306 l -1.1251,-3.0818 -5.5193,0 -1.1271,3.0818 c -0.3603,0.9769 -0.7001,1.2306 -1.7617,1.2306 l -1.1699,0 0,-1.8241 z m 9.0499,-4.2716 0,0 -1.6359,-4.5663 c -0.2792,-0.7852 -0.5966,-2.0996 -0.5966,-2.0996 l -0.042,0 c 0,0 -0.2948,1.3144 -0.5712,2.0996 l -1.6339,4.5663 4.4796,0 z" />
        <path
           inkscape:connector-curvature="0"
           id="path17"
           style="fill:#00a6b7;fill-rule:evenodd"
           d="m 449.2222,331.846 c 0,0 1.5281,1.8 3.7587,1.8 1.4043,0 2.5674,-0.8478 2.5674,-2.2306 0,-3.1416 -7.2383,-2.656 -7.2383,-7.3261 0,-2.2502 1.9746,-4.0136 4.7979,-4.0136 1.5917,0 4.2704,0.7234 4.2704,2.7615 l 0,1.2305 -1.957,0 0,-0.6993 c 0,-0.7849 -1.122,-1.3572 -2.3134,-1.3572 -1.6135,0 -2.6328,0.8907 -2.6328,2.0154 0,3.0354 7.2207,2.3576 7.2207,7.2854 0,2.2889 -1.7853,4.2695 -4.7568,4.2695 -3.1856,0 -4.9709,-2.2286 -4.9709,-2.2286 l 1.2541,-1.5069 z" />
        <path
           inkscape:connector-curvature="0"
           id="path19"
           style="fill:#00a6b7;fill-rule:evenodd"
           d="m 465.2787,333.4995 1.467,0 0,-11.3417 -1.467,0 0,-1.8304 4.9502,0 0,1.8304 -1.4678,0 0,11.3417 1.4678,0 0,1.8241 -4.9502,0 0,-1.8241 z" />
        <path
           inkscape:connector-curvature="0"
           id="path21"
           style="fill:#00a6b7;fill-rule:evenodd"
           d="m 479.1438,322.6283 c 0,-0.3243 -0.1717,-0.4705 -0.4685,-0.4705 l -0.9131,0 0,-1.8304 2.1464,0 c 0.9542,0 1.3564,0.4045 1.3564,1.3624 l 0,11.3439 c 0,0.2948 0.1709,0.4658 0.4697,0.4658 l 4.1397,0 c 0.3008,0 0.4697,-0.171 0.4697,-0.4658 l 0,-0.9601 1.9299,0 0,1.8927 c 0,0.955 -0.4026,1.3573 -1.3615,1.3573 l -6.412,0 c -0.9541,0 -1.3567,-0.4023 -1.3567,-1.3573 l 0,-11.338 z" />
      </g>
      <g
         id="Layer1003">
        <path
           inkscape:connector-curvature="0"
           id="path24"
           style="fill:#004482;fill-rule:evenodd"
           d="m 313.0121,289.4681 -2.2918,0 0.9274,-3.9101 14.1866,0 c 1.6574,0 2.3927,0.7384 2.3927,2.3947 l 0,3.8046 -4.1904,0 0,-1.5137 c 0,-0.496 -0.2812,-0.7755 -0.7733,-0.7755 l -5.637,0 0,6.5508 8.1017,0 -0.9286,3.9152 -7.1731,0 0,5.9483 c 0,0.4921 0.2803,0.7752 0.7736,0.7752 l 5.7744,0 c 0.4969,0 0.7764,-0.2831 0.7764,-0.7752 l 0,-1.5137 4.1942,0 0,3.8066 c 0,1.6895 -0.7421,2.3964 -2.3956,2.3964 l -11.3437,0 c -1.6894,0 -2.3935,-0.7069 -2.3935,-2.3964 l 0,-18.7072 z" />
        <path
           inkscape:connector-curvature="0"
           id="path26"
           style="fill:#004482;fill-rule:evenodd"
           d="m 332.8109,303.8754 c 0,0 2.5733,2.958 6.0605,2.958 1.8986,0 3.5938,-1.0213 3.5938,-2.958 0,-4.2607 -11.7675,-3.9112 -11.7675,-11.6943 0,-4.0518 3.5223,-7.0449 8.3497,-7.0449 2.9209,0 7.4336,1.3739 7.4336,4.9325 l 0,2.3213 -4.1573,0 0,-1.1251 c 0,-1.1619 -1.6574,-1.9383 -3.3126,-1.9383 -2.114,0 -3.6668,1.0948 -3.6668,2.6768 0,4.2636 11.7703,3.4188 11.7703,11.624 0,3.9832 -3.0654,7.3641 -8.3135,7.3641 -5.5312,0 -8.5966,-3.8749 -8.5966,-3.8749 l 2.6064,-3.2412 z" />
        <path
           inkscape:connector-curvature="0"
           id="path28"
           style="fill:#004482;fill-rule:evenodd"
           d="m 361.0794,285.1362 c 3.2032,0 9.4748,1.3359 9.4748,5.6007 l 0,2.7822 -4.1935,0 0,-1.4103 c 0,-1.8329 -2.994,-2.6748 -5.1806,-2.6748 -4.4697,0 -7.992,3.2012 -7.992,8.417 0,4.8994 3.5926,8.8418 8.1365,8.8418 4.7189,0 7.5734,-3.3106 7.5734,-3.3106 l 2.4295,3.3106 c 0,0 -3.6278,4.2987 -10.0752,4.2987 -7.6436,0 -12.8554,-5.7421 -12.8554,-13.1405 0,-7.2207 5.4239,-12.7148 12.6825,-12.7148 z" />
        <path
           inkscape:connector-curvature="0"
           id="path30"
           style="fill:#004482;fill-rule:evenodd"
           d="m 384.8031,285.1362 c 7.3625,0 12.9277,5.6007 12.9277,12.751 0,7.3622 -5.5652,13.1043 -12.9277,13.1043 -7.3661,0 -12.9288,-5.7421 -12.9288,-13.1043 0,-7.1503 5.5627,-12.751 12.9288,-12.751 z m 0,21.5566 0,0 c 4.5077,0 8.1358,-3.8007 8.1358,-8.8056 0,-4.7931 -3.6281,-8.4532 -8.1358,-8.4532 -4.5116,0 -8.1388,3.6601 -8.1388,8.4532 0,5.0049 3.6272,8.8056 8.1388,8.8056 z" />
        <path
           inkscape:connector-curvature="0"
           id="path32"
           style="fill:#004482;fill-rule:evenodd"
           d="m 406.6897,289.4681 -3.8358,0 c -0.4972,0 -0.7753,0.2795 -0.7753,0.7755 l 0,1.5137 -4.0518,0 0,-3.9424 c 0,-1.6603 0.5643,-2.2569 2.2538,-2.2569 l 17.4376,0 c 1.6914,0 2.2538,0.5966 2.2538,2.2569 l 0,3.9424 -4.0507,0 0,-1.5137 c 0,-0.496 -0.2812,-0.7755 -0.7744,-0.7755 l -3.8418,0 0,21.1036 -4.6154,0 0,-21.1036 z" />
        <path
           inkscape:connector-curvature="0"
           id="path34"
           style="fill:#004482;fill-rule:evenodd"
           d="m 423.2786,289.4681 -2.2881,0 0.925,-3.9101 14.1865,0 c 1.6535,0 2.3956,0.7384 2.3956,2.3947 l 0,3.8046 -4.1945,0 0,-1.5137 c 0,-0.496 -0.2811,-0.7755 -0.7724,-0.7755 l -5.6407,0 0,6.5508 8.1046,0 -0.9318,3.9152 -7.1728,0 0,5.9483 c 0,0.4921 0.2872,0.7752 0.7773,0.7752 l 5.7773,0 c 0.4904,0 0.7756,-0.2831 0.7756,-0.7752 l 0,-1.5137 4.1913,0 0,3.8066 c 0,1.6895 -0.7382,2.3964 -2.3933,2.3964 l -11.344,0 c -1.6914,0 -2.3956,-0.7069 -2.3956,-2.3964 l 0,-18.7072 z" />
        <path
           inkscape:connector-curvature="0"
           id="path36"
           style="fill:#004482;fill-rule:evenodd"
           d="m 440.886,306.6576 2.5002,0 0,-17.1895 -2.5002,0 0,-3.9101 9.3711,0 -0.9286,3.9101 -1.5741,0 0,17.1895 2.5027,0 0,3.9141 -9.3711,0 0,-3.9141 z" />
        <path
           inkscape:connector-curvature="0"
           id="path38"
           style="fill:#004482;fill-rule:evenodd"
           d="m 453.9954,289.4681 -3.2156,0 0.9267,-3.9101 11.2039,0 c 4.5794,0 7.7873,2.8165 7.7873,7.5361 0,4.51 -3.1025,6.3771 -4.1553,6.588 l 0,0.074 c 0,0 0.7725,0.3507 1.2286,1.2688 l 2.4335,4.8251 c 0.3866,0.7373 0.9833,0.8076 1.7589,0.8076 l 0.4569,0 0,3.9141 -2.4267,0 c -1.8672,0 -2.6787,-0.2851 -3.4892,-1.8691 l -3.2051,-6.3077 c -0.5304,-0.9833 -1.0596,-1.1591 -2.3596,-1.1591 l -2.3297,0 0,9.3359 -4.6146,0 0,-21.1036 z m 8.2823,7.8185 0,0 c 2.3241,0 3.6964,-1.4434 3.6964,-3.9416 0,-2.4687 -1.3723,-3.8769 -3.6261,-3.8769 l -3.738,0 0,7.8185 3.6677,0 z" />
        <path
           inkscape:connector-curvature="0"
           id="path40"
           style="fill:#004482;fill-rule:evenodd"
           d="m 485.6088,285.1362 c 7.3661,0 12.9288,5.6007 12.9288,12.751 0,7.3622 -5.5627,13.1043 -12.9288,13.1043 -7.3624,0 -12.9257,-5.7421 -12.9257,-13.1043 0,-7.1503 5.5633,-12.751 12.9257,-12.751 z m 0,21.5566 0,0 c 4.5116,0 8.1397,-3.8007 8.1397,-8.8056 0,-4.7931 -3.6281,-8.4532 -8.1397,-8.4532 -4.5076,0 -8.1348,3.6601 -8.1348,8.4532 0,5.0049 3.6272,8.8056 8.1348,8.8056 z" />
        <path
           inkscape:connector-curvature="0"
           id="path42"
           style="fill:#004482;fill-rule:evenodd"
           d="m 501.9026,303.8754 c 0,0 2.5733,2.958 6.0577,2.958 1.9034,0 3.5969,-1.0213 3.5969,-2.958 0,-4.2607 -11.7686,-3.9112 -11.7686,-11.6943 0,-4.0518 3.5243,-7.0449 8.3514,-7.0449 2.92,0 7.4296,1.3739 7.4296,4.9325 l 0,2.3213 -4.1562,0 0,-1.1251 c 0,-1.1619 -1.6562,-1.9383 -3.3094,-1.9383 -2.1163,0 -3.666,1.0948 -3.666,2.6768 0,4.2636 11.7666,3.4188 11.7666,11.624 0,3.9832 -3.0646,7.3641 -8.3115,7.3641 -5.5332,0 -8.5978,-3.8749 -8.5978,-3.8749 l 2.6073,-3.2412 z" />
      </g>
      <g
         id="Layer1004">
        <g
           id="Layer1005">
          <path
             inkscape:connector-curvature="0"
             id="path46"
             style="fill:none"
             d="m 415.6469,184.3101 c -0.0323,0.0759 -0.0595,0.1582 -0.0898,0.2381 0.1474,-0.3507 0.3183,-0.6834 0.4629,-1.0321 -0.0176,0.032 -0.0383,0.0615 -0.0539,0.0967 -0.0584,0.1218 -0.2676,0.5799 -0.3192,0.6973 z" />
        </g>
        <g
           id="Layer1006">
          <path
             inkscape:connector-curvature="0"
             id="path49"
             style="fill:none"
             d="m 416.8412,182.0543 c 0.2579,-0.4065 0.5351,-0.796 0.8251,-1.179 -0.0759,0.0987 -0.159,0.1885 -0.2273,0.29 -0.2072,0.2863 -0.4005,0.5859 -0.5978,0.889 z" />
        </g>
        <g
           id="Layer1007">
          <path
             inkscape:connector-curvature="0"
             id="path52"
             style="fill:none"
             d="m 414.7807,187.401 c 0.043,-0.3135 0.1054,-0.6222 0.1757,-0.9329 -0.03,0.1349 -0.0811,0.2619 -0.1046,0.3966 -0.036,0.1737 -0.0468,0.3583 -0.0711,0.5363 z" />
        </g>
        <g
           id="Layer1008">
          <path
             inkscape:connector-curvature="0"
             id="path55"
             style="fill:none"
             d="m 415.2504,185.4077 c 0.0586,-0.1866 0.1142,-0.3751 0.1825,-0.5548 -0.036,0.0958 -0.076,0.1953 -0.1131,0.292 -0.0295,0.087 -0.0419,0.1769 -0.0694,0.2628 z" />
        </g>
        <g
           id="Layer1009">
          <path
             inkscape:connector-curvature="0"
             id="path58"
             style="fill:none"
             d="m 428.3237,169.8568 c -0.1125,0.2052 -0.2276,0.3994 -0.3458,0.5927 -2.1688,3.543 -5.4638,5.3586 -8.3545,8.172 -0.6007,0.5871 -1.1495,1.2254 -1.6708,1.8836 0.5145,-0.6522 1.0656,-1.2792 1.664,-1.8632 2.882,-2.8145 6.1806,-4.6287 8.3537,-8.1717 0.117,-0.1913 0.2341,-0.3917 0.3495,-0.5919 0.0779,-0.125 0.1026,-0.1573 0.1162,-0.2129 -0.004,0.01 -0.009,0.0216 -0.0136,0.0236 0,0 -0.0108,0.0204 -0.0987,0.1678 z" />
        </g>
        <g
           id="Layer1010">
          <path
             inkscape:connector-curvature="0"
             id="path61"
             style="fill:none"
             d="m 391.8804,95.5018 c 0.3056,-0.5247 0.6231,-1.0423 0.955,-1.5531 -0.2764,0.4243 -0.6043,0.9524 -0.955,1.5531 z" />
        </g>
        <g
           id="Layer1011">
          <path
             inkscape:connector-curvature="0"
             id="path64"
             style="fill:none"
             d="m 404.0464,214.1634 c 0.3172,-0.3591 0.6347,-0.7217 0.9219,-1.1055 -0.3059,0.4133 -0.6495,0.7971 -0.9913,1.1818 0.0244,-0.0284 0.045,-0.0508 0.0694,-0.0763 z" />
        </g>
        <g
           id="Layer1012">
          <path
             inkscape:connector-curvature="0"
             id="path67"
             style="fill:none"
             d="m 403.4662,230.3158 c 0.0295,-0.1114 0.045,-0.2265 0.0655,-0.3399 -0.0256,0.131 -0.048,0.262 -0.0831,0.3878 0.007,-0.0156 0.0136,-0.0312 0.0176,-0.0479 z" />
        </g>
        <g
           id="Layer1013">
          <path
             inkscape:connector-curvature="0"
             id="path70"
             style="fill:none"
             d="m 405.8617,196.3871 c -0.1641,0.3056 -0.2656,0.6398 -0.2471,1.0012 -0.0185,-0.3614 0.083,-0.6956 0.2471,-1.0012 z" />
        </g>
        <g
           id="Layer1014">
          <path
             inkscape:connector-curvature="0"
             id="path73"
             style="fill:none"
             d="m 392.8969,93.852 c 0.1729,-0.2696 0.3458,-0.5304 0.5264,-0.7926 -0.091,0.133 -0.2744,0.4094 -0.5264,0.7926 z" />
        </g>
        <g
           id="Layer1015">
          <path
             inkscape:connector-curvature="0"
             id="path76"
             style="fill:none"
             d="m 415.6126,206.6783 c -0.0946,0.074 -0.155,0.1434 -0.2412,0.2245 0.0754,-0.0695 0.1514,-0.1398 0.2305,-0.2089 0.5215,-0.421 1.0771,-0.8116 1.5695,-1.2668 0.1083,-0.0956 0.2001,-0.203 0.2988,-0.3065 -0.0967,0.0936 -0.1865,0.199 -0.2892,0.2928 -0.4969,0.4522 -1.0468,0.8419 -1.5684,1.2649 z" />
        </g>
        <g
           id="Layer1016">
          <path
             inkscape:connector-curvature="0"
             id="path79"
             style="fill:none"
             d="m 425.274,199.8763 c -0.4904,0.5351 -1.0843,1.0292 -1.6671,1.4952 -0.0264,0.0204 -0.0519,0.042 -0.0763,0.0584 1.1946,-0.9215 2.3837,-1.8425 2.8633,-3.3406 0.0196,-0.0695 0.0196,-0.1347 0.0363,-0.2041 -0.0167,0.0694 -0.0295,0.1346 -0.0519,0.2069 -0.2109,0.6682 -0.6114,1.2529 -1.1043,1.7842 z" />
        </g>
        <g
           id="Layer1017">
          <path
             inkscape:connector-curvature="0"
             id="path82"
             style="fill:none"
             d="m 419.0054,202.8274 c 0.0624,-0.1531 0.076,-0.32 0.1211,-0.4793 -0.0859,0.2803 -0.1602,0.5663 -0.2863,0.8331 0.0547,-0.1194 0.1173,-0.2325 0.1652,-0.3538 z" />
        </g>
        <g
           id="Layer1018">
          <path
             inkscape:connector-curvature="0"
             id="path85"
             style="fill:none"
             d="m 402.2444,216.6968 c 0.1514,-0.3711 0.3575,-0.7178 0.5851,-1.046 -0.04,0.0555 -0.0811,0.1102 -0.121,0.1689 -0.1778,0.2792 -0.3399,0.5703 -0.4641,0.8771 z" />
        </g>
        <g
           id="Layer1019">
          <path
             inkscape:connector-curvature="0"
             id="path88"
             style="fill:none"
             d="m 420.7884,204.6166 c -0.04,0.2892 0.005,0.5811 0.1154,0.8691 0.1434,0.3827 0.3954,0.7597 0.6834,1.1339 0.1006,0.1258 0.2109,0.2449 0.3175,0.3642 -0.0995,-0.1258 -0.2001,-0.252 -0.3036,-0.3829 -0.2891,-0.3691 -0.5451,-0.7461 -0.6846,-1.1356 -0.1125,-0.2851 -0.1533,-0.5771 -0.1145,-0.8702 0.0159,-0.0938 0.0363,-0.1894 0.0675,-0.2832 0.085,-0.2344 0.2157,-0.4569 0.3662,-0.6778 -0.155,0.2209 -0.2939,0.4434 -0.375,0.6818 -0.038,0.0995 -0.0587,0.1981 -0.0723,0.3007 z" />
        </g>
        <g
           id="Layer1020">
          <path
             inkscape:connector-curvature="0"
             id="path91"
             style="fill:none"
             d="m 425.5189,212.1712 c 0.2041,0.4836 0.3078,0.9922 0.2639,1.5509 -0.007,0.0742 -0.0159,0.1513 -0.0255,0.2265 -0.0939,0.6494 -0.383,1.3711 -0.9513,2.209 -0.0604,0.087 -0.1191,0.1817 -0.1806,0.2755 0.0675,-0.0958 0.127,-0.1885 0.1893,-0.2814 0.5675,-0.832 0.8635,-1.5537 0.9522,-2.2031 0.0159,-0.082 0.0247,-0.1678 0.0303,-0.2481 0.0372,-0.5536 -0.0643,-1.0624 -0.2625,-1.5468 -0.2267,-0.5604 -0.5734,-1.0956 -0.9688,-1.6563 -0.1945,-0.2832 -0.4014,-0.5448 -0.6075,-0.8204 0.2061,0.2892 0.4082,0.5647 0.5939,0.8363 0.3934,0.5643 0.7392,1.0995 0.9666,1.6579 z" />
        </g>
        <g
           id="Layer1021">
          <path
             inkscape:connector-curvature="0"
             id="path94"
             style="fill:none"
             d="m 421.943,202.7806 c 0.007,-0.004 0.0124,-0.006 0.0136,-0.0144 -10e-4,0.005 -0.007,0.0105 -0.0119,0.0136 0,0 0,0 -0.002,8e-4 z" />
        </g>
        <g
           id="Layer1022">
          <path
             inkscape:connector-curvature="0"
             id="path97"
             style="fill:none"
             d="m 397.4085,70.2734 c 1.0871,-1.3912 2.2207,-2.7893 3.3996,-4.1729 0.7705,2.145 1.4979,4.294 2.1855,6.4404 0.6886,2.1333 1.336,4.2681 1.9639,6.3892 0.625,2.1087 1.2217,4.2109 1.8056,6.289 0.576,2.0693 1.1455,4.1267 1.7051,6.1509 0.5,1.819 0.9502,3.6864 1.294,5.5783 0.1689,0.9348 0.3152,1.8774 0.4278,2.821 -0.1126,-0.9504 -0.2452,-1.9032 -0.4173,-2.8389 -1.1112,-6.0956 -3.0475,-12.0878 -4.7996,-18.021 -0.6299,-2.1194 -1.2821,-4.2542 -1.9659,-6.3856 -0.6865,-2.1483 -1.419,-4.2973 -2.1886,-6.4408 -1.1786,1.3841 -2.3105,2.7788 -3.3993,4.1714 -1.0879,1.3944 -2.1229,2.7856 -3.0997,4.1644 -0.0711,0.1001 -0.1406,0.2035 -0.2109,0.3005 l -0.004,0.0034 c 0.0692,-0.097 0.1347,-0.1916 0.2021,-0.2869 0.9755,-1.3768 2.0175,-2.7714 3.1014,-4.1624 z" />
        </g>
        <g
           id="Layer1023">
          <path
             inkscape:connector-curvature="0"
             id="path100"
             style="fill:none"
             d="m 408.5337,113.9664 c -1.2501,3.0945 -1.5225,6.6619 -0.8184,9.9218 0.131,0.6041 0.3212,1.1908 0.5281,1.7711 -0.197,-0.5959 -0.3827,-1.1911 -0.5145,-1.7918 -0.7041,-3.2581 -0.4317,-6.8275 0.8184,-9.9204 0.0312,-0.0791 0.0655,-0.1602 0.0966,-0.2412 0.3487,-0.8198 0.6171,-1.6572 0.8623,-2.5025 -0.2452,0.8453 -0.5264,1.6827 -0.873,2.5042 -0.0312,0.0705 -0.0615,0.1604 -0.0995,0.2588 z" />
        </g>
        <g
           id="Layer1024">
          <path
             inkscape:connector-curvature="0"
             id="path103"
             style="fill:none"
             d="m 421.9673,184.4838 c -0.0402,1.0029 0.1035,1.7813 0.3308,2.2267 0.2285,0.4609 0.4904,0.8983 0.7637,1.3271 0.2052,0.3663 0.4348,0.7178 0.6693,1.0664 -0.2277,-0.3554 -0.4525,-0.718 -0.6614,-1.0851 -0.081,-0.1426 -0.1601,-0.2888 -0.2344,-0.4337 -1.1307,-2.1883 -0.9374,-4.4334 -0.0859,-6.6912 0.2169,-0.5643 0.4864,-1.1505 0.8124,-1.7481 -0.324,0.5976 -0.6043,1.1855 -0.8232,1.7538 -0.5088,1.3439 -0.7265,2.5781 -0.7713,3.5841 z" />
        </g>
        <g
           id="Layer1025">
          <path
             inkscape:connector-curvature="0"
             id="path106"
             style="fill:none"
             d="m 435.2924,155.0979 c 0.5743,0.4601 1.0956,0.9561 1.5069,1.5089 0.4102,0.5448 0.709,1.1426 0.828,1.8028 0.1398,0.7617 0.1593,1.5529 0.0763,2.3633 -0.0519,0.4844 -0.1349,0.9725 -0.256,1.4686 -0.3291,1.3164 -0.8906,2.6428 -1.6152,3.9101 -0.7265,1.266 -1.6259,2.467 -2.6161,3.5374 -0.9873,1.0703 -2.078,2.0018 -3.1895,2.7227 -2.0489,1.324 -3.6133,2.7734 -4.7939,4.2236 -0.1455,0.1777 -0.2676,0.3563 -0.4023,0.534 0.1327,-0.1777 0.2656,-0.3594 0.4122,-0.536 1.1803,-1.4482 2.7479,-2.8996 4.7928,-4.2236 1.1132,-0.7229 2.2039,-1.6543 3.1912,-2.7287 0.9944,-1.0664 1.8916,-2.2657 2.6184,-3.5342 0.7265,-1.2665 1.2852,-2.5909 1.6092,-3.911 0.123,-0.496 0.2149,-0.9941 0.2668,-1.4825 0.0751,-0.8084 0.0586,-1.5996 -0.0831,-2.3604 -0.1162,-0.663 -0.4141,-1.2597 -0.8232,-1.8037 -0.4141,-0.5527 -0.9357,-1.0508 -1.5069,-1.5117 -0.5763,-0.4657 -1.1982,-0.8974 -1.7988,-1.3184 -0.4969,-0.3455 -0.9941,-0.701 -1.4902,-1.0565 0.4521,0.3555 0.959,0.711 1.4766,1.0741 0.6043,0.419 1.2225,0.8515 1.7968,1.3212 z" />
        </g>
        <g
           id="Layer1026">
          <path
             inkscape:connector-curvature="0"
             id="path109"
             style="fill:none"
             d="m 422.0325,144.7036 c -1.6083,-1.503 -3.1376,-3.0702 -4.5056,-4.7237 -0.1438,-0.1718 -0.2991,-0.3623 -0.4473,-0.54 0.1482,0.1865 0.2831,0.3759 0.4317,0.5576 1.4422,1.7393 2.9667,3.3517 4.5212,4.7061 z" />
        </g>
        <g
           id="Layer1027">
          <path
             inkscape:connector-curvature="0"
             id="path112"
             style="fill:none"
             d="m 402.2308,176.4292 c 0.0547,-0.1758 0.1066,-0.3495 0.1718,-0.5275 -0.0547,0.1485 -0.1686,0.3478 -0.1757,0.5176 0,0.004 0.004,0.005 0.004,0.01 z" />
        </g>
        <g
           id="Layer1028">
          <path
             inkscape:connector-curvature="0"
             id="path115"
             style="fill:none"
             d="m 394.9163,237.7964 c 0.0451,-0.0547 0.097,-0.0978 0.1378,-0.1544 0.2001,-0.2461 0.3866,-0.5009 0.5907,-0.7373 0.007,-0.009 0.0187,-0.0224 0.0244,-0.0264 -0.008,0.004 -0.0193,0.008 -0.0312,0.0136 -0.2265,0.3047 -0.4725,0.6046 -0.7217,0.9045 z" />
        </g>
        <g
           id="Layer1029">
          <path
             inkscape:connector-curvature="0"
             id="path118"
             style="fill:none"
             d="m 399.6507,226.6985 c -0.085,1.1602 -0.3191,2.473 -0.7304,3.8537 0.3849,-1.2461 0.6613,-2.5548 0.7304,-3.8537 z" />
        </g>
        <g
           id="Layer1030">
          <path
             inkscape:connector-curvature="0"
             id="path121"
             style="fill:none"
             d="m 397.2739,234.5003 c 0.0419,-0.0711 0.0723,-0.1494 0.1122,-0.2236 -0.0918,0.174 -0.1865,0.3418 -0.2831,0.5139 0.0567,-0.097 0.119,-0.1897 0.1709,-0.2903 z" />
        </g>
        <g
           id="Layer1031">
          <path
             inkscape:connector-curvature="0"
             id="path124"
             style="fill:none"
             d="m 395.7279,116.6536 c 0,0.001 -0.002,0.0102 -0.002,0.0139 0,0.0258 0.009,0.0482 0.0116,0.0723 -0.003,-0.0275 -0.007,-0.0587 -0.01,-0.0862 z" />
        </g>
        <g
           id="Layer1032">
          <path
             inkscape:connector-curvature="0"
             id="path127"
             style="fill:none"
             d="m 402.9242,215.5178 c 0.0587,-0.0847 0.121,-0.1618 0.1797,-0.2429 -0.0343,0.0448 -0.0692,0.0879 -0.1035,0.1267 -0.0243,0.0391 -0.0487,0.0763 -0.0762,0.1162 z" />
        </g>
        <g
           id="Layer1033">
          <path
             inkscape:connector-curvature="0"
             id="path130"
             style="fill:none"
             d="m 395.8549,118.747 c 0,0.0156 0.004,0.0363 0.004,0.0499 -0.004,-0.2228 -0.007,-0.4487 -0.0175,-0.6764 -0.0224,0.1205 0,0.2554 0.007,0.3793 0.004,0.0831 0.007,0.1641 0.007,0.2472 z" />
        </g>
        <g
           id="Layer1034">
          <path
             inkscape:connector-curvature="0"
             id="path133"
             style="fill:none"
             d="m 396.3733,236.014 c 0.0587,-0.0907 0.1134,-0.1933 0.1721,-0.288 -0.0899,0.1406 -0.1789,0.2852 -0.2727,0.4258 0.0383,-0.0527 0.0833,-0.1063 0.1006,-0.1378 z" />
        </g>
        <g
           id="Layer1035">
          <path
             inkscape:connector-curvature="0"
             id="path136"
             style="fill:none"
             d="m 407.2808,194.8394 c 0.1326,-0.1094 0.2684,-0.2189 0.4033,-0.3223 0.0868,-0.0703 0.1727,-0.1426 0.2625,-0.2081 -0.0935,0.0655 -0.1817,0.1417 -0.2744,0.2137 -0.1298,0.1035 -0.2625,0.2073 -0.3914,0.3167 z" />
        </g>
        <g
           id="Layer1036">
          <path
             inkscape:connector-curvature="0"
             id="path139"
             style="fill:none"
             d="m 403.77,183.2465 c 0.3212,0.5009 0.7178,0.9561 1.0497,1.4678 -0.3183,-0.4873 -0.6854,-0.9746 -1.0497,-1.4678 z" />
        </g>
        <g
           id="Layer1037">
          <path
             inkscape:connector-curvature="0"
             id="path142"
             style="fill:none"
             d="m 406.6214,195.4242 c 0.0587,-0.0556 0.1134,-0.1103 0.1709,-0.1659 -0.002,0.004 -0.009,0.005 -0.0124,0.0105 -0.0519,0.0519 -0.1038,0.1018 -0.1585,0.1554 z" />
        </g>
        <g
           id="Layer1038">
          <path
             inkscape:connector-curvature="0"
             id="path145"
             style="fill:none"
             d="m 406.6214,179.4203 c -0.0108,0.1006 -0.0176,0.1982 -0.0212,0.2968 -0.003,0.0295 0.002,0.0587 0,0.0879 0.004,-0.1239 0.007,-0.2517 0.0212,-0.3799 0.0207,-0.2029 0.0451,-0.4082 0.0771,-0.6103 0.0559,-0.3407 0.131,-0.6786 0.2228,-1.0117 -0.0918,0.3368 -0.1669,0.6727 -0.2245,1.0146 -0.0303,0.2012 -0.0547,0.4025 -0.0754,0.6026 z" />
        </g>
        <g
           id="Layer1039">
          <path
             inkscape:connector-curvature="0"
             id="path148"
             style="fill:none"
             d="m 395.8588,118.9695 c 0,-0.003 0.007,-0.007 0.007,-0.0102 -0.003,-0.0156 -0.003,-0.0258 -0.003,-0.0346 0,0.0136 0.003,0.0346 -0.004,0.0448 z" />
        </g>
        <path
           inkscape:connector-curvature="0"
           id="path150"
           style="fill:#d9d300;fill-rule:evenodd"
           d="m 416.5172,228.1966 c 0.1238,-0.3963 0.2812,-0.7889 0.4629,-1.1718 0.0671,-0.1522 0.1238,-0.3115 0.1961,-0.4561 0.1075,-0.1925 0.2245,-0.3838 0.3388,-0.5692 0.7588,-1.3068 1.7189,-2.5002 2.7062,-3.6425 1.6356,-1.9015 3.0027,-3.8614 4.4042,-5.9239 0.0615,-0.0938 0.1202,-0.1885 0.1806,-0.2755 0.5683,-0.8379 0.8574,-1.5596 0.9513,-2.209 0.01,-0.0752 0.0187,-0.1523 0.0255,-0.2265 0.0439,-0.5587 -0.0598,-1.0673 -0.2639,-1.5509 -0.2274,-0.5584 -0.5732,-1.0936 -0.9666,-1.6579 -0.1857,-0.2716 -0.3878,-0.5471 -0.5939,-0.8363 -0.6659,-0.9082 -1.3524,-1.8025 -2.0537,-2.6932 -0.1066,-0.1193 -0.2169,-0.2384 -0.3175,-0.3642 -0.288,-0.3742 -0.54,-0.7512 -0.6834,-1.1339 -0.1103,-0.288 -0.1554,-0.5799 -0.1154,-0.8691 0.0136,-0.1026 0.0343,-0.2012 0.0723,-0.3007 0.0811,-0.2384 0.22,-0.4609 0.375,-0.6818 0.01,-0.0195 0.0167,-0.0411 0.0312,-0.0643 0.1114,-0.1565 0.2412,-0.2931 0.3654,-0.4377 0.1034,-0.1131 0.1981,-0.2381 0.3107,-0.3515 0.002,-8e-4 0.002,-8e-4 0.002,-8e-4 0.005,-0.003 0.0107,-0.009 0.0119,-0.0136 0.4872,-0.4796 1.0312,-0.9094 1.574,-1.3363 0.0244,-0.0164 0.0499,-0.038 0.0763,-0.0584 0.5828,-0.466 1.1767,-0.9601 1.6671,-1.4952 0.4929,-0.5313 0.8934,-1.116 1.1043,-1.7842 0.0224,-0.0723 0.0352,-0.1375 0.0519,-0.2069 0.9873,-3.4384 -0.9697,-6.0301 -2.6991,-8.7812 -0.2345,-0.3486 -0.4641,-0.7001 -0.6693,-1.0664 -0.2733,-0.4288 -0.5352,-0.8662 -0.7637,-1.3271 -0.2273,-0.4454 -0.371,-1.2238 -0.3308,-2.2267 0.0448,-1.006 0.2625,-2.2402 0.7713,-3.5841 0.2189,-0.5683 0.4992,-1.1562 0.8232,-1.7538 0.3175,-0.5899 0.6973,-1.1914 1.1319,-1.7949 0.007,-0.008 0.0108,-0.0136 0.0196,-0.0235 0.0362,-0.0507 0.0754,-0.1035 0.1173,-0.1582 0.1347,-0.1777 0.2568,-0.3563 0.4023,-0.534 1.1806,-1.4502 2.745,-2.8996 4.7939,-4.2236 1.1115,-0.7209 2.2022,-1.6524 3.1895,-2.7227 0.9902,-1.0704 1.8896,-2.2714 2.6161,-3.5374 0.7246,-1.2673 1.2861,-2.5937 1.6152,-3.9101 0.1211,-0.4961 0.2041,-0.9842 0.256,-1.4686 0.083,-0.8104 0.0635,-1.6016 -0.0763,-2.3633 -0.119,-0.6602 -0.4178,-1.258 -0.828,-1.8028 -0.4113,-0.5528 -0.9326,-1.0488 -1.5069,-1.5089 -0.5743,-0.4697 -1.1925,-0.9022 -1.7968,-1.3212 -0.5176,-0.3631 -1.0245,-0.7186 -1.4766,-1.0741 -3.4228,-2.4366 -6.8692,-5.0842 -9.9865,-7.999 -1.5545,-1.3544 -3.079,-2.9668 -4.5212,-4.7061 -0.1486,-0.1817 -0.2835,-0.3711 -0.4317,-0.5576 -3.3067,-3.9892 -7.1691,-8.7551 -8.8362,-13.7806 -0.2069,-0.5803 -0.3971,-1.167 -0.5281,-1.7711 -0.7041,-3.2599 -0.4317,-6.8273 0.8184,-9.9218 0.038,-0.0984 0.0683,-0.1883 0.0995,-0.2588 0.3466,-0.8215 0.6278,-1.6589 0.873,-2.5042 0.0468,-0.1763 0.0899,-0.356 0.135,-0.5317 0.1766,-0.6801 0.3211,-1.37 0.4382,-2.0674 0.0383,-0.24 0.087,-0.4833 0.1213,-0.7285 0.0292,-0.2259 0.0584,-0.4541 0.0808,-0.6817 0.0323,-0.2866 0.0499,-0.5746 0.0746,-0.8626 0.032,-0.4558 0.0671,-0.9133 0.0808,-1.3722 0.005,-0.2123 0.002,-0.4281 0.005,-0.6387 0.004,-0.521 0.004,-1.0423 -0.0168,-1.5653 -0.002,-0.098 -0.0107,-0.1916 -0.0136,-0.288 -0.045,-0.8838 -0.1114,-1.7671 -0.216,-2.6543 -0.002,-0.0136 -0.006,-0.0315 -0.006,-0.0437 -0.1126,-0.9436 -0.2589,-1.8862 -0.4278,-2.821 -0.3438,-1.8919 -0.794,-3.7593 -1.294,-5.5783 -0.5596,-2.0242 -1.1291,-4.0816 -1.7051,-6.1509 -0.5839,-2.0781 -1.1806,-4.1803 -1.8056,-6.289 -0.6279,-2.1211 -1.2753,-4.2559 -1.9639,-6.3892 -0.6876,-2.1464 -1.415,-4.2954 -2.1855,-6.4404 -1.1789,1.3836 -2.3125,2.7817 -3.3996,4.1729 -1.0839,1.391 -2.1259,2.7856 -3.1014,4.1624 -0.0674,0.0953 -0.1329,0.1899 -0.2021,0.2869 2.9724,4.1989 5.1747,8.9569 6.5926,13.9861 1.4082,4.9703 2.1211,10.1271 2.3371,15.2912 0.1171,2.8919 -0.1065,5.8193 -0.8458,8.629 -0.6622,2.516 -1.7734,4.8359 -2.2334,7.4137 -1.4826,8.2429 4.7256,15.5398 9.4804,21.7253 5.1067,6.6535 12.1241,11.1535 18.4473,16.5283 3.6162,3.0322 2.6065,7.6543 0.5624,11.3536 -0.007,0.0127 -0.007,0.0127 -0.01,0.0155 -0.0136,0.0556 -0.0383,0.0879 -0.1162,0.2129 -0.1154,0.2002 -0.2325,0.4006 -0.3495,0.5919 -2.1731,3.543 -5.4717,5.3572 -8.3537,8.1717 -0.5984,0.584 -1.1495,1.211 -1.664,1.8632 -0.0966,0.125 -0.1933,0.2464 -0.2863,0.3702 -0.29,0.383 -0.5672,0.7725 -0.8251,1.179 -0.01,0.0136 -0.0204,0.0331 -0.0292,0.0467 -0.1211,0.1894 -0.2325,0.3827 -0.3467,0.576 -0.1593,0.2776 -0.3144,0.5559 -0.4453,0.8391 -0.1446,0.3487 -0.3155,0.6814 -0.4629,1.0321 -0.0411,0.0998 -0.0811,0.2032 -0.1242,0.3047 -0.0683,0.1797 -0.1239,0.3682 -0.1825,0.5548 -0.1171,0.3495 -0.207,0.7021 -0.294,1.0604 -0.0703,0.3107 -0.1327,0.6194 -0.1757,0.9329 -0.0273,0.1746 -0.0547,0.3535 -0.0723,0.5301 -0.038,0.4013 -0.0448,0.8067 -0.038,1.2109 0,0.1103 -0.0108,0.2189 -0.003,0.33 0.1853,3.8605 4.3826,6.3691 4.7596,10.3252 0.0391,0.4836 0.0136,0.9629 -0.0419,1.4425 -0.007,0.0695 -0.0168,0.1327 -0.0275,0.2041 -0.0185,0.1318 -0.0204,0.2608 -0.0516,0.3875 -0.0383,0.1817 -0.1242,0.3419 -0.1797,0.5168 -0.0451,0.1593 -0.0587,0.3262 -0.1211,0.4793 -0.0479,0.1213 -0.1105,0.2344 -0.1652,0.3538 -0.0176,0.0419 -0.04,0.0839 -0.0556,0.127 -0.2069,0.4098 -0.4589,0.8024 -0.7381,1.1658 -0.0139,0.0156 -0.0199,0.0312 -0.0315,0.0508 -0.0567,0.0703 -0.1171,0.1397 -0.1797,0.212 -0.0233,0.0312 -0.0516,0.0584 -0.076,0.0927 -0.093,0.1006 -0.1964,0.1933 -0.2891,0.2911 -0.0987,0.1035 -0.1905,0.2109 -0.2988,0.3065 -0.4924,0.4552 -1.048,0.8458 -1.5695,1.2668 -0.0791,0.0691 -0.1551,0.1394 -0.2305,0.2089 -4.5967,3.9815 1.3615,6.6455 2.88,10.5205 0.252,0.6386 0.2988,1.3272 0.1689,1.995 -0.0634,0.337 -0.1689,0.6574 -0.2967,0.9717 -2.0382,5.0069 -6.8741,8.0754 -9.0088,12.9784 -0.2637,0.5987 -0.4258,1.2033 -0.5225,1.8088 -0.0382,0.1582 -0.0742,0.328 -0.1006,0.4941 -0.1134,0.707 -0.0998,1.4083 -0.0119,2.1084 0.01,0.0695 0.0187,0.1378 0.0335,0.2069 0.1063,0.7405 0.3036,1.4738 0.5487,2.1983 0.1307,0.4005 0.2793,0.798 0.4374,1.1914 0.3711,0.9454 0.7804,1.8731 1.126,2.7678 0.246,0.623 0.4053,1.4502 0.4481,2.4276 0.0119,0.2148 0.0139,0.4461 0.0139,0.6797 -0.003,0.377 -0.0235,0.7696 -0.0567,1.1798 -0.0363,0.4765 -0.0879,0.9706 -0.1661,1.4842 -0.0604,0.3966 -0.1426,0.8067 -0.2324,1.2257 -0.1866,0.8595 -0.4286,1.7606 -0.7481,2.6864 -0.4238,1.2118 -0.9746,2.463 -1.6512,3.7168 0.0204,0.0139 0.0352,0.0314 0.0556,0.0451 0.1777,-0.2464 0.3554,-0.4964 0.5292,-0.7325 0.2803,-0.375 0.5508,-0.7461 0.8184,-1.084 0.2707,-0.3498 0.5303,-0.6797 0.7823,-0.9833 0.2549,-0.3039 0.4969,-0.5803 0.7294,-0.8272 0.8127,-0.8575 1.7121,-1.7716 2.6679,-2.7501 0.9514,-0.9726 1.9591,-2.0019 2.9846,-3.0858 0.0692,-0.0743 0.1307,-0.1506 0.2022,-0.2197 0.0428,-0.3039 0.7625,-2.3732 1.078,-3.8038 0.0244,-0.1367 0.0586,-0.2793 0.0791,-0.4142 0.1074,-0.6074 0.1865,-1.1971 0.2315,-1.7518 0.0488,-0.5607 0.0692,-1.0859 0.0584,-1.582 -0.0136,-0.9884 -0.1374,-1.8213 -0.3446,-2.4551 -0.3799,-1.135 -0.7801,-2.2521 -1.1152,-3.3409 -0.3379,-1.0888 -0.6103,-2.1572 -0.7313,-3.1964 -0.0763,-0.6482 -0.0919,-1.2801 -0.0207,-1.9051 0.01,-0.1066 0.0518,-0.2101 0.0683,-0.3155 0.0419,-0.2696 0.083,-0.5411 0.1593,-0.8048 0.0116,-0.0467 0.038,-0.0878 0.0519,-0.1406 z" />
        <path
           inkscape:connector-curvature="0"
           id="path152"
           style="fill:#00763a;fill-rule:evenodd"
           d="m 491.6361,160.2173 c -2.1815,-6.7725 -6.41,-12.875 -11.874,-17.3038 -5.0635,-4.1054 -11.2108,-6.6132 -17.6006,-7.4883 -7.666,-1.0488 -15.2462,0.7461 -22.0351,4.4121 -1.6064,0.8635 -3.2012,1.8241 -4.7773,2.8905 0.5936,-0.8025 1.0908,-1.5585 1.5118,-2.2714 0.8535,-1.4355 1.3847,-2.662 1.7713,-3.5694 0.9386,-2.1767 1.7119,-4.5144 2.3292,-6.8856 0.616,-2.3712 1.0741,-4.7792 1.374,-7.0605 0.2968,-2.2955 0.4317,-4.4615 0.4062,-6.3565 -0.0332,-2.1852 -0.2129,-4.4282 -0.5576,-6.667 -0.3279,-2.2539 -0.8183,-4.5162 -1.457,-6.7221 -0.6454,-2.2281 -1.4394,-4.3988 -2.3887,-6.4718 -0.9579,-2.0761 -2.0713,-4.0575 -3.3339,-5.8711 -1.7881,-2.554 -3.6612,-5.29 -5.6477,-8.1184 -1.9939,-2.8545 -4.1071,-5.806 -6.3473,-8.7537 -2.259,-2.9818 -4.6457,-5.9664 -7.176,-8.8501 -2.5645,-2.9216 -5.2704,-5.7401 -8.1388,-8.3562 -0.0867,-0.0726 -0.1797,-0.1349 -0.2812,-0.2004 -0.0986,-0.055 -0.2041,-0.1035 -0.3192,-0.1466 -0.1125,-0.0399 -0.2335,-0.0706 -0.3554,-0.093 -0.1231,-0.0226 -0.2472,-0.0382 -0.3694,-0.0382 -0.1003,-0.0014 -0.199,0.0054 -0.3007,0.0156 -0.0987,0.0139 -0.1962,0.0329 -0.2929,0.0586 -0.1006,0.0278 -0.1904,0.0621 -0.2763,0.1103 -0.0919,0.0451 -0.169,0.0933 -0.2492,0.152 -1.5661,1.2101 -3.1453,2.5112 -4.7245,3.8831 -1.5792,1.3737 -3.1572,2.8219 -4.7101,4.3215 -1.5565,1.5049 -3.0906,3.0585 -4.5907,4.6479 -0.25,0.2676 -0.5008,0.5366 -0.7509,0.8056 1.3153,1.3879 2.5254,2.8653 3.6298,4.4221 -0.002,0.0048 0,0.0068 -0.002,0.0068 l 0.002,-0.002 c 0,0 0,0.002 10e-4,0.0054 l 0.004,0 c 0.0703,-0.1004 0.1398,-0.2038 0.2109,-0.3039 0.9768,-1.3788 2.0118,-2.77 3.0997,-4.1644 1.0888,-1.3926 2.2207,-2.7873 3.3993,-4.1714 0.7696,2.1435 1.5021,4.2925 2.1886,6.4408 0.6838,2.1314 1.336,4.2662 1.9659,6.3856 1.7521,5.9332 3.6884,11.9254 4.7996,18.021 0.1721,0.9357 0.3047,1.8885 0.4173,2.8389 0,0.0122 0.004,0.0301 0.006,0.0437 0.1046,0.8872 0.171,1.7705 0.216,2.6543 0.003,0.0964 0.0116,0.19 0.0136,0.288 0.0204,0.523 0.0204,1.0443 0.0168,1.5653 -0.003,0.2106 0,0.4264 -0.005,0.6387 -0.0137,0.4589 -0.0488,0.9164 -0.0808,1.3722 -0.0247,0.288 -0.0423,0.576 -0.0746,0.8626 -0.0224,0.2276 -0.0516,0.4558 -0.0808,0.6817 -0.0343,0.2452 -0.083,0.4885 -0.1213,0.7285 -0.1171,0.6974 -0.2616,1.3873 -0.4382,2.0674 -0.0451,0.1757 -0.0882,0.3554 -0.135,0.5317 -0.2452,0.8453 -0.5136,1.6827 -0.8623,2.5025 -0.0311,0.081 -0.0654,0.1621 -0.0966,0.2412 -1.2501,3.0929 -1.5225,6.6623 -0.8184,9.9204 0.1318,0.6007 0.3175,1.1959 0.5145,1.7918 1.6671,5.0255 5.5295,9.7914 8.8362,13.7806 0.1482,0.1777 0.3035,0.3682 0.4473,0.54 1.368,1.6535 2.8973,3.2207 4.5056,4.7237 3.1173,2.9148 6.5637,5.5624 9.9865,7.999 0.4961,0.3555 0.9933,0.711 1.4902,1.0565 0.6006,0.421 1.2225,0.8527 1.7988,1.3184 0.5712,0.4609 1.0928,0.959 1.5069,1.5117 0.4091,0.544 0.707,1.1407 0.8232,1.8037 0.1417,0.7608 0.1582,1.552 0.0831,2.3604 -0.0519,0.4884 -0.1438,0.9865 -0.2668,1.4825 -0.324,1.3201 -0.8827,2.6445 -1.6092,3.911 -0.7268,1.2685 -1.624,2.4678 -2.6184,3.5342 -0.9873,1.0744 -2.078,2.0058 -3.1912,2.7287 -2.0449,1.324 -3.6125,2.7754 -4.7928,4.2236 -0.1466,0.1766 -0.2795,0.3583 -0.4122,0.536 -0.0419,0.0547 -0.0811,0.1075 -0.1173,0.1582 -0.009,0.01 -0.0128,0.0156 -0.0196,0.0235 -0.4346,0.6035 -0.8144,1.205 -1.1319,1.7949 -0.326,0.5976 -0.5955,1.1838 -0.8124,1.7481 -0.8515,2.2578 -1.0448,4.5029 0.0859,6.6912 0.0743,0.1449 0.1534,0.2911 0.2344,0.4337 0.2089,0.3671 0.4337,0.7297 0.6614,1.0851 1.7294,2.7511 3.6864,5.3428 2.6991,8.7812 -0.0167,0.0694 -0.0167,0.1346 -0.0363,0.2041 -0.4796,1.4981 -1.6687,2.4191 -2.8633,3.3406 -0.5428,0.4269 -1.0868,0.8567 -1.574,1.3363 -10e-4,0.009 -0.007,0.0105 -0.0136,0.0144 -0.1126,0.1134 -0.2073,0.2384 -0.3107,0.3515 -0.1242,0.1446 -0.254,0.2812 -0.3654,0.4377 -0.0145,0.0232 -0.0213,0.0448 -0.0312,0.0643 -0.1505,0.2209 -0.2812,0.4434 -0.3662,0.6778 -0.0312,0.0938 -0.0516,0.1894 -0.0675,0.2832 -0.0388,0.2931 0.002,0.5851 0.1145,0.8702 0.1395,0.3895 0.3955,0.7665 0.6846,1.1356 0.1035,0.1309 0.2041,0.2571 0.3036,0.3829 0.7013,0.8907 1.3878,1.785 2.0537,2.6932 0.2061,0.2756 0.413,0.5372 0.6075,0.8204 0.3954,0.5607 0.7421,1.0959 0.9688,1.6563 0.1982,0.4844 0.2997,0.9932 0.2625,1.5468 -0.006,0.0803 -0.0144,0.1661 -0.0303,0.2481 -0.0887,0.6494 -0.3847,1.3711 -0.9522,2.2031 -0.0623,0.0929 -0.1218,0.1856 -0.1893,0.2814 -1.4015,2.0625 -2.7686,4.0224 -4.4042,5.9239 -0.9873,1.1423 -1.9474,2.3357 -2.7062,3.6425 -0.1143,0.1854 -0.2313,0.3767 -0.3388,0.5692 -0.0723,0.1446 -0.129,0.3039 -0.1961,0.4561 -0.1817,0.3829 -0.3391,0.7755 -0.4629,1.1718 -0.0139,0.0528 -0.0403,0.0939 -0.0519,0.1406 -0.0763,0.2637 -0.1174,0.5352 -0.1593,0.8048 -0.0136,0.0998 -0.0476,0.1981 -0.0584,0.2988 -0.0683,0.623 -0.0527,1.256 0.0244,1.9043 0.117,1.036 0.3934,2.1044 0.7305,3.1955 0.3327,1.0896 0.7401,2.2087 1.116,3.3406 0.2041,0.6338 0.331,1.4717 0.3418,2.4542 0.0136,0.4961 -0.0108,1.0233 -0.0555,1.5809 -0.0479,0.5655 -0.1242,1.1563 -0.2305,1.7725 -0.0244,0.1242 -0.0519,0.2588 -0.0831,0.3966 -0.3146,1.4298 -1.036,3.4979 -1.0771,3.8046 2.8409,-2.9823 6.1475,-6.4462 9.7597,-8.4237 0.6505,-0.3546 1.2257,-0.6681 1.8487,-0.5255 2.1348,0.4836 3.9237,1.3048 6.1747,1.4513 1.4219,0.0899 2.8545,0.0584 4.2696,-0.0723 0.6905,-0.0654 1.3722,-0.1513 2.0537,-0.2599 9.3058,-1.463 17.0821,-6.3017 20.8105,-15.3867 0.0372,-0.0947 0.0479,-0.1854 0.0304,-0.288 -0.0117,-0.0967 -0.0548,-0.1945 -0.1183,-0.2824 -0.0575,-0.0847 -0.1434,-0.1678 -0.2352,-0.2265 -0.093,-0.0623 -0.2089,-0.1094 -0.3419,-0.1306 -0.3671,-0.0491 -0.7157,-0.1094 -1.0732,-0.1593 -0.3574,-0.0479 -0.7129,-0.1063 -1.0635,-0.1593 -7.5204,-1.0701 -15.7167,-3.6034 -21.2967,-9.1055 -7.5929,-7.4903 -10.9299,-29.3221 1.5789,-33.9208 3.8185,-1.3994 8.7052,-1.3651 12.1016,1.0372 0.6183,0.4383 1.2294,0.9383 1.8165,1.5046 0.5831,0.5528 1.1387,1.179 1.6475,1.8468 0.5125,0.669 0.9714,1.3966 1.3583,2.1671 0.3867,0.7676 0.7081,1.5849 0.9355,2.4415 0.2208,0.8572 0.3526,1.7529 0.375,2.6776 0.0184,0.9286 -0.078,1.8808 -0.3115,2.8633 -0.0428,0.1797 -0.0927,0.3642 -0.1426,0.5488 -0.2285,0.8027 -0.546,1.6239 -0.9698,2.455 -0.0147,0.0256 -0.0283,0.0528 -0.0419,0.0771 -0.0116,0.0275 -0.0244,0.0451 -0.0343,0.0675 -0.007,0.0204 -0.0176,0.0391 -0.0244,0.0607 -0.0108,0.0175 -0.0224,0.032 -0.0244,0.0467 -0.0496,0.0907 -0.0703,0.1942 -0.0567,0.2931 0.012,0.0976 0.0567,0.2002 0.1154,0.288 0.0627,0.0908 0.1454,0.173 0.2452,0.2345 0.0967,0.0635 0.2129,0.1071 0.3348,0.1238 0.004,0 0.0108,0.008 0.0159,0.008 l 0.0192,0 c 0.008,0.003 0.0139,0.003 0.0187,0.003 l 0.04,0 c 0.7384,0.036 1.4786,0.0587 2.1983,0.0695 0.7285,0.004 1.4462,0 2.1571,-0.0156 9.2648,-0.2991 18.7705,-3.0019 25.1788,-10.215 3.3497,-3.7675 5.4952,-8.3437 6.3975,-13.2687 0.9091,-4.9872 0.5488,-10.3084 -1.1251,-15.4978 z" />
        <path
           inkscape:connector-curvature="0"
           id="path154"
           style="fill:#004482;fill-rule:evenodd"
           d="m 395.638,236.8919 c 0.0119,-0.006 0.0235,-0.01 0.0312,-0.0136 0.1134,-0.131 0.4309,-0.5068 0.6035,-0.7265 0.0938,-0.1406 0.1828,-0.2852 0.2727,-0.4258 0.1933,-0.3067 0.3778,-0.6182 0.5576,-0.9354 0.0966,-0.1721 0.1913,-0.3399 0.2831,-0.5139 0.1534,-0.294 0.2988,-0.5896 0.4366,-0.8907 0.0762,-0.159 0.1553,-0.3183 0.2276,-0.4765 0.1953,-0.4589 0.3847,-0.9218 0.5488,-1.3875 0.0762,-0.1965 0.1414,-0.3994 0.2069,-0.6007 0.042,-0.121 0.0802,-0.2452 0.1143,-0.3691 0.4113,-1.3807 0.6454,-2.6935 0.7304,-3.8537 0.005,-0.0575 0.005,-0.1159 0.0119,-0.1718 0.007,-0.1933 0.0137,-0.3846 0.0117,-0.5799 -0.0224,-1.9395 -0.7197,-3.7344 -1.3184,-5.5469 -0.3016,-0.9209 -0.5508,-1.8204 -0.6642,-2.6847 -0.1171,-0.8702 -0.1034,-1.709 0.1134,-2.5098 0.2177,-0.8007 0.6455,-1.5703 1.3555,-2.2901 0.5712,-0.574 1.0917,-1.1894 1.5789,-1.8241 0.4916,-0.6326 0.9525,-1.2928 1.3947,-1.961 0.1066,-0.1581 0.21,-0.3242 0.3175,-0.4901 0.331,-0.504 0.655,-1.0176 0.9745,-1.5145 0.4198,-0.6769 0.8408,-1.3332 1.2793,-1.9698 0.4677,-0.6954 0.7061,-1.296 0.7744,-1.838 0.0731,-0.5411 -0.0255,-1.0284 -0.2324,-1.4981 -0.2002,-0.4657 -0.5009,-0.9199 -0.8459,-1.3944 -0.3416,-0.4688 -0.7245,-0.9609 -1.0732,-1.5077 -0.1766,-0.2736 -0.4218,-0.5599 -0.6902,-0.8527 -0.2696,-0.2971 -0.5559,-0.5987 -0.8076,-0.9082 -0.2452,-0.3107 -0.4737,-0.6299 -0.5978,-0.9465 -0.1279,-0.324 -0.1622,-0.6395 -0.0548,-0.9626 0.1582,-0.4593 0.4797,-0.8674 0.8887,-1.2629 0.4054,-0.3914 0.8994,-0.7628 1.3859,-1.1534 0.4904,-0.3847 0.9825,-0.7829 1.3946,-1.2178 0.1511,-0.1658 0.2928,-0.3347 0.421,-0.5105 0.2109,-0.297 0.3758,-0.6134 0.4833,-0.9581 0.3155,-1.0224 0.3515,-1.9227 0.1981,-2.747 -0.1395,-0.832 -0.4773,-1.586 -0.8994,-2.3117 -0.0723,-0.1278 -0.1514,-0.252 -0.2305,-0.3719 -0.3319,-0.5117 -0.7285,-0.9669 -1.0497,-1.4678 -0.5068,-0.6709 -1.004,-1.3507 -1.3742,-2.0812 -0.3535,-0.697 -0.5879,-1.4354 -0.5879,-2.2402 0,-0.0244 0,-0.0516 0,-0.078 0.0119,-0.623 0.1125,-1.3495 0.3331,-2.1378 0.0244,-0.0927 0.0615,-0.1866 0.0898,-0.2801 0,-0.005 -0.004,-0.006 -0.004,-0.01 0.007,-0.1698 0.121,-0.3691 0.1757,-0.5176 0.4113,-1.1152 1.0636,-2.3066 2.0401,-3.5039 0.252,-0.3048 0.5128,-0.5936 0.7804,-0.8768 0.1015,-0.0998 0.2177,-0.2032 0.3231,-0.3047 0.1262,-0.1194 0.2452,-0.2444 0.3714,-0.3535 0.7205,-0.6622 1.5437,-1.3088 2.5086,-1.9159 0.9287,-0.5919 1.8369,-1.3575 2.6544,-2.2335 0.8184,-0.8742 1.5585,-1.8683 2.1504,-2.9035 0.5935,-1.0372 1.0457,-2.1308 1.2977,-3.2128 0.252,-1.0859 0.297,-2.1563 0.085,-3.1583 -0.1123,-0.546 -0.375,-1.0389 -0.7305,-1.4823 -0.3623,-0.4473 -0.8096,-0.8555 -1.3008,-1.2384 -0.4921,-0.3787 -1.0185,-0.7314 -1.5381,-1.0761 -0.3299,-0.2208 -0.6562,-0.4393 -0.9581,-0.6494 -0.1687,-0.117 -0.3328,-0.2412 -0.4861,-0.3622 -0.6075,-0.4765 -1.2218,-0.9513 -1.8468,-1.4298 -0.6143,-0.4785 -1.2422,-0.9494 -1.8692,-1.4247 -0.6278,-0.4777 -1.2577,-0.9522 -1.8915,-1.429 -0.2294,-0.1698 -0.4522,-0.3435 -0.6855,-0.5145 -0.4073,-0.3123 -0.8143,-0.6162 -1.2248,-0.9269 -1.6084,-1.2078 -3.1912,-2.7799 -4.6786,-4.4821 -0.4677,-0.5312 -0.917,-1.0763 -1.3583,-1.6223 -0.29,-0.3623 -0.5664,-0.7313 -0.8527,-1.0936 -0.6678,-0.8663 -1.3173,-1.7354 -1.9091,-2.5821 -0.1426,-0.2041 -0.29,-0.4053 -0.4386,-0.6074 -1.4011,-1.9327 -2.9443,-3.8447 -3.6756,-6.1512 -0.7697,-2.4259 -0.504,-4.991 0.0243,-7.4381 0.1642,-0.7662 0.3331,-1.3723 0.4573,-1.6739 0.2948,-0.7061 0.5388,-1.4224 0.7313,-2.147 0.1865,-0.7319 0.3475,-1.4672 0.4541,-2.2246 0.2109,-1.4967 0.2449,-3.0152 0.1485,-4.5303 -0.0901,-1.5171 -0.3106,-3.0376 -0.621,-4.5425 -0.3107,-1.5013 -0.7081,-2.996 -1.1458,-4.432 -0.1386,-0.4691 -0.2871,-0.9337 -0.4317,-1.4117 -0.0516,0.1307 -0.1055,0.2535 -0.1619,0.3833 -0.5918,1.4425 -1.1398,2.9097 -1.6239,4.3869 -0.4788,1.4774 -0.8898,2.9684 -1.207,4.4733 -0.3195,1.5067 -0.5451,3.0201 -0.6594,4.5545 -0.1425,1.9003 -0.1349,4.0677 0.0272,6.3408 0.1526,2.2626 0.4601,4.6324 0.9258,6.9517 0.461,2.3113 1.0803,4.5691 1.8604,6.6288 0.7736,2.0497 1.7082,3.9033 2.8134,5.417 -1.4502,-0.8615 -2.9304,-1.6291 -4.4413,-2.2989 -1.5166,-0.6874 -3.0594,-1.2645 -4.625,-1.753 -1.5653,-0.4881 -3.1581,-0.8818 -4.7549,-1.1845 -8.5682,-1.6056 -17.9169,-0.4043 -25.531,4.0614 -2.7102,1.5908 -5.2229,3.5139 -7.4308,5.7697 -4.2763,4.375 -7.2589,9.409 -8.9305,14.6199 -1.6742,5.1925 -2.0401,10.5149 -1.1271,15.501 0.9023,4.9269 3.0458,9.4972 6.3975,13.2687 4.953,5.5743 12.0019,8.5878 19.1795,9.6738 1.9758,0.2988 3.998,0.4873 5.9953,0.5392 0.7089,0.0175 1.4306,0.0215 2.1552,0.0175 0.7265,-0.009 1.4638,-0.0312 2.2011,-0.0694 l 0.0167,0 c 0.0128,0 0.0156,0 0.0196,0 0.01,0 0.0164,0 0.0252,-0.003 0.009,0 0.0127,0 0.0195,0 0.007,0 0.01,-0.004 0.0168,-0.004 0.121,-0.0176 0.2361,-0.0655 0.3339,-0.1242 0.1015,-0.0604 0.1806,-0.1482 0.2432,-0.2353 0.0615,-0.0927 0.0995,-0.1933 0.1171,-0.2891 0.0139,-0.1003 -0.004,-0.201 -0.0556,-0.2937 -0.007,-0.0167 -0.0167,-0.0323 -0.0235,-0.0518 -0.008,-0.0136 -0.0216,-0.0312 -0.0244,-0.0567 -0.0136,-0.0244 -0.0283,-0.04 -0.038,-0.0675 -0.0139,-0.0244 -0.0275,-0.0496 -0.0411,-0.0791 -0.5215,-1.0185 -0.8838,-2.0194 -1.1123,-2.9999 -0.2344,-0.9805 -0.3271,-1.9363 -0.3107,-2.8613 0.0199,-0.9286 0.1525,-1.8224 0.3751,-2.6796 0.2236,-0.8555 0.547,-1.673 0.9337,-2.4426 0.3847,-0.7704 0.8456,-1.497 1.3592,-2.1679 0.5119,-0.669 1.0655,-1.2909 1.6455,-1.8465 4.1749,-4.0039 10.9678,-5.2257 15.8176,-1.7569 0.5791,0.4209 1.1248,0.9014 1.6308,1.4374 3.1544,3.3222 4.3846,8.0929 4.3846,12.621 0,4.4875 -0.7353,9.3546 -2.3641,13.5411 -0.4796,1.2325 -1.0907,2.4319 -1.8779,3.5898 -2.38,3.5107 -5.957,5.9326 -9.7784,7.5489 -1.1231,0.4757 -2.3054,0.8975 -3.5399,1.2909 -3.2706,1.0188 -6.6807,1.7317 -10.0735,2.2091 -0.3455,0.0558 -0.7058,0.1122 -1.0593,0.165 -0.3555,0.047 -0.7101,0.1114 -1.0911,0.1564 -0.117,0.0204 -0.2333,0.0683 -0.3279,0.1307 -0.0927,0.0587 -0.1758,0.1446 -0.2325,0.2276 -0.0646,0.0871 -0.1034,0.1866 -0.119,0.2832 -0.0136,0.1006 -0.007,0.1933 0.0292,0.292 0.9493,2.3009 2.0792,4.337 3.3361,6.1095 4.0036,5.6619 9.7304,9.3827 16.3964,9.1054 2.9149,0 6.1699,-0.0958 9.1726,-0.8067 0.4493,-0.4453 0.8635,-0.9122 1.2637,-1.3944 0.2492,-0.2999 0.4952,-0.5998 0.7217,-0.9045 z m -44.2196,-67.9354 0,0 -3.3897,-0.6347 -2.4451,2.4356 -0.4437,-3.4232 -3.0682,-1.5732 3.1161,-1.4766 0.546,-3.412 2.3672,2.5078 3.4112,-0.5273 -1.6523,3.0283 1.5585,3.0753 z m 0.9981,-15.6407 0,0 -0.4541,-3.494 -3.1357,-1.6095 3.1856,-1.5117 0.5524,-3.4824 2.4259,2.5673 3.4844,-0.5487 -1.6895,3.0965 1.5988,3.1476 -3.468,-0.6494 -2.4998,2.4843 z m 8.0039,11.8888 0,0 -0.3799,-2.9112 -2.6144,-1.3408 2.6544,-1.2597 0.4629,-2.8965 2.0205,2.1308 2.8973,-0.4492 -1.4031,2.5741 1.326,2.6201 -2.8825,-0.5381 -2.0812,2.0705 z m 13.3407,13.9589 0,0 -3.4033,-0.6386 -2.454,2.4451 -0.4492,-3.4356 -3.085,-1.578 3.1297,-1.4862 0.5528,-3.4161 2.38,2.5118 3.4188,-0.5315 -1.658,3.043 1.5682,3.0861 z m -1.4463,-26.9473 0,0 1.4502,2.8681 -3.1552,-0.5967 -2.2785,2.2677 -0.4099,-3.1827 -2.8613,-1.4658 2.9021,-1.3788 0.508,-3.168 2.209,2.3301 3.1717,-0.4904 -1.5361,2.8165 z" />
        <path
           inkscape:connector-curvature="0"
           id="path156"
           style="fill:#ffec00;fill-rule:evenodd"
           d="m 395.8656,119.3423 c 0.002,-0.1296 0.002,-0.2588 0,-0.383 0,0.003 -0.007,0.007 -0.007,0.0102 0.007,0.1262 0.007,0.252 0.007,0.3728 z" />
        <path
           inkscape:connector-curvature="0"
           id="path158"
           style="fill:#ffec00;fill-rule:evenodd"
           d="m 411.0735,246.5717 c -0.0428,-0.9774 -0.2021,-1.8046 -0.4481,-2.4276 -0.3456,-0.8947 -0.7549,-1.8224 -1.126,-2.7678 -0.1581,-0.3934 -0.3067,-0.7909 -0.4374,-1.1914 -0.2451,-0.7245 -0.4424,-1.4578 -0.5487,-2.1983 -0.0148,-0.0691 -0.0236,-0.1374 -0.0335,-0.2069 -0.0879,-0.7001 -0.1015,-1.4014 0.0119,-2.1084 0.0264,-0.1661 0.0624,-0.3359 0.1006,-0.4941 0.0967,-0.6055 0.2588,-1.2101 0.5225,-1.8088 2.1347,-4.903 6.9706,-7.9715 9.0088,-12.9784 0.1278,-0.3143 0.2333,-0.6347 0.2967,-0.9717 0.1299,-0.6678 0.0831,-1.3564 -0.1689,-1.995 -1.5185,-3.875 -7.4767,-6.539 -2.88,-10.5205 0.0862,-0.0811 0.1466,-0.1505 0.2412,-0.2245 0.5216,-0.423 1.0715,-0.8127 1.5684,-1.2649 0.1027,-0.0938 0.1925,-0.1992 0.2892,-0.2928 0.0927,-0.0978 0.1961,-0.1905 0.2891,-0.2911 0.0244,-0.0343 0.0527,-0.0615 0.076,-0.0927 0.0626,-0.0723 0.123,-0.1417 0.1797,-0.212 0.0116,-0.0196 0.0176,-0.0352 0.0315,-0.0508 0.2792,-0.3634 0.5312,-0.756 0.7381,-1.1658 0.0156,-0.0431 0.038,-0.0851 0.0556,-0.127 0.1261,-0.2668 0.2004,-0.5528 0.2863,-0.8331 0.0555,-0.1749 0.1414,-0.3351 0.1797,-0.5168 0.0312,-0.1267 0.0331,-0.2557 0.0516,-0.3875 0.0107,-0.0714 0.0207,-0.1346 0.0275,-0.2041 0.0555,-0.4796 0.081,-0.9589 0.0419,-1.4425 -0.377,-3.9561 -4.5743,-6.4647 -4.7596,-10.3252 -0.008,-0.1111 0.003,-0.2197 0.003,-0.33 -0.007,-0.4042 0,-0.8096 0.038,-1.2109 0.0176,-0.1766 0.045,-0.3555 0.0723,-0.5301 0.0243,-0.178 0.0351,-0.3626 0.0711,-0.5363 0.0235,-0.1347 0.0746,-0.2617 0.1046,-0.3966 0.087,-0.3583 0.1769,-0.7109 0.294,-1.0604 0.0275,-0.0859 0.0399,-0.1758 0.0694,-0.2628 0.0371,-0.0967 0.0771,-0.1962 0.1131,-0.292 0.0431,-0.1015 0.0831,-0.2049 0.1242,-0.3047 0.0303,-0.0799 0.0575,-0.1622 0.0898,-0.2381 0.0516,-0.1174 0.2608,-0.5755 0.3192,-0.6973 0.0156,-0.0352 0.0363,-0.0647 0.0539,-0.0967 0.1309,-0.2832 0.286,-0.5615 0.4453,-0.8391 0.1142,-0.1933 0.2256,-0.3866 0.3467,-0.576 0.009,-0.0136 0.0195,-0.0331 0.0292,-0.0467 0.1973,-0.3031 0.3906,-0.6027 0.5978,-0.889 0.0683,-0.1015 0.1514,-0.1913 0.2273,-0.29 0.093,-0.1238 0.1897,-0.2452 0.2863,-0.3702 0.5213,-0.6582 1.0701,-1.2965 1.6708,-1.8836 2.8907,-2.8134 6.1857,-4.629 8.3545,-8.172 0.1182,-0.1933 0.2333,-0.3875 0.3458,-0.5927 0.0879,-0.1474 0.0987,-0.1678 0.0987,-0.1678 0.005,-0.002 0.01,-0.0136 0.0136,-0.0236 0.003,-0.003 0.003,-0.003 0.01,-0.0155 2.0441,-3.6993 3.0538,-8.3214 -0.5624,-11.3536 -6.3232,-5.3748 -13.3406,-9.8748 -18.4473,-16.5283 -4.7548,-6.1855 -10.963,-13.4824 -9.4804,-21.7253 0.46,-2.5778 1.5712,-4.8977 2.2334,-7.4137 0.7393,-2.8097 0.9629,-5.7371 0.8458,-8.629 -0.216,-5.1641 -0.9289,-10.3209 -2.3371,-15.2912 -1.4179,-5.0292 -3.6202,-9.7872 -6.5926,-13.9861 -10e-4,-0.0034 -10e-4,-0.0034 -10e-4,-0.0034 l -0.002,0 c -0.8923,1.2733 -1.739,2.5336 -2.5282,3.7709 -0.6494,1.0233 -2.1779,3.4844 -2.3145,3.7349 -0.3515,0.6262 -0.6933,1.2646 -1.0488,1.9086 -0.0215,0.0363 -0.0439,0.0743 -0.0644,0.112 -0.3291,0.6023 -0.6613,1.2152 -0.9943,1.8192 -0.3552,0.6503 -0.707,1.2992 -1.0557,1.9591 -0.3475,0.6536 -0.6962,1.3079 -1.034,1.9686 0.3826,1.122 0.7489,2.2403 1.1151,3.3514 0.3555,1.1135 0.7053,2.2266 1.0528,3.3276 0.3418,1.1013 0.6758,2.1989 1.0108,3.2828 0.1846,0.6177 0.3663,1.2252 0.5457,1.8326 0.5579,-1.317 1.1407,-2.63 1.7501,-3.9141 0.0136,0.0346 0.0235,0.0675 0.0323,0.1001 0.0468,-0.1001 0.0987,-0.1947 0.1454,-0.2968 0.0292,-0.0587 0.0539,-0.1207 0.0831,-0.1797 0.0116,-0.0309 0.034,-0.0567 0.0479,-0.0859 0.3263,-0.6556 0.6814,-1.3068 1.0253,-1.8901 0.002,-0.0048 0.002,-0.0082 0.002,-0.0116 0.005,-0.002 0.005,-0.0037 0.008,-0.0071 0.3507,-0.6007 0.6786,-1.1288 0.955,-1.5531 0.005,-0.0142 0.0136,-0.0244 0.0224,-0.0366 0.0116,-0.0193 0.0255,-0.0431 0.0391,-0.0601 0.252,-0.3832 0.4354,-0.6596 0.5264,-0.7926 0.004,-0.0102 0.007,-0.0156 0.0136,-0.0238 0.002,-0.002 0.0196,-0.0224 0.0196,-0.0261 0.6573,1.5359 1.2149,3.1221 1.6738,4.741 1.1671,4.0918 1.7482,8.3338 1.916,12.5708 0.0997,2.3836 -0.0879,4.7928 -0.7078,7.1019 -0.1398,0.521 -0.3019,1.0287 -0.4729,1.5361 0.002,0.1242 0.002,0.2534 0,0.383 0,-0.1208 0,-0.2466 -0.007,-0.3728 -0.5108,1.5029 -1.0975,2.9616 -1.3838,4.5459 -0.2313,1.2563 -0.2421,2.4923 -0.0811,3.693 0.7021,5.2812 4.7129,10.0341 7.92,14.1837 4.2384,5.4785 10.0548,9.205 15.3076,13.6131 3.214,2.6884 2.0058,6.8616 0.0624,9.9922 -1.8105,2.9103 -4.5496,4.3976 -6.95,6.7101 -0.4924,0.4697 -0.9533,0.9734 -1.379,1.5066 -0.4386,0.5451 -0.8408,1.1203 -1.1963,1.7246 -0.3534,0.6018 -0.6661,1.2289 -0.9158,1.8851 -0.004,0.0136 -0.009,0.03 -0.0139,0.0448 -0.1182,0.3067 -0.2225,0.6171 -0.3076,0.9345 -0.0918,0.3331 -0.1669,0.671 -0.2228,1.0117 -0.032,0.2021 -0.0564,0.4074 -0.0771,0.6103 -0.0144,0.1282 -0.0176,0.256 -0.0212,0.3799 -0.0139,0.2727 -0.0188,0.542 0,0.8166 0.1102,2.1376 1.7294,3.7764 2.8621,5.6104 0.5448,0.8923 0.9797,1.8212 1.0732,2.8865 0.1621,1.8476 -0.5097,3.382 -1.8672,4.6094 -0.038,0.0323 -0.076,0.0663 -0.1114,0.0958 -0.1961,0.1678 -0.4031,0.3232 -0.6103,0.4853 -0.0898,0.0655 -0.1757,0.1378 -0.2625,0.2081 -0.1349,0.1034 -0.2707,0.2129 -0.4033,0.3223 -0.0332,0.0252 -0.0667,0.0527 -0.0987,0.0779 -0.1329,0.1114 -0.2608,0.2208 -0.3898,0.341 -0.0575,0.0556 -0.1122,0.1103 -0.1709,0.1659 -0.0419,0.043 -0.0898,0.0898 -0.1346,0.1338 -0.1174,0.123 -0.2313,0.252 -0.3391,0.3945 -0.1034,0.135 -0.1981,0.2756 -0.2752,0.4238 -0.004,0.006 -0.006,0.008 -0.0108,0.0108 -0.1641,0.3056 -0.2656,0.6398 -0.2471,1.0012 0.0714,1.3632 1.4621,2.823 2.6064,4.2205 0.5647,0.6877 1.0684,1.3615 1.3164,1.9961 0.7852,1.9611 -0.9139,3.7891 -1.8777,5.3555 -0.8642,1.3887 -1.7149,2.7871 -2.6914,4.0975 -0.2872,0.3838 -0.6047,0.7464 -0.9219,1.1055 -0.0244,0.0255 -0.045,0.0479 -0.0694,0.0763 -0.007,0.01 -0.0167,0.0215 -0.0253,0.0292 -0.1748,0.1993 -0.3506,0.3985 -0.5235,0.6018 -0.1086,0.1278 -0.218,0.2693 -0.3243,0.4042 -0.0587,0.0811 -0.121,0.1582 -0.1797,0.2429 -0.032,0.0431 -0.0655,0.0871 -0.0947,0.133 -0.2276,0.3282 -0.4337,0.6749 -0.5851,1.046 -1.3181,3.1915 0.6478,6.3943 1.3252,9.4677 0.0315,0.1278 0.0587,0.2568 0.0791,0.3866 0.0227,0.1281 0.0267,0.2588 0.0423,0.3869 0.0164,0.1355 0.0379,0.2761 0.0447,0.4071 0.0137,0.2069 0.0168,0.4141 0.0168,0.6171 0,0.1349 0.002,0.2679 -0.003,0.4005 -0.0105,0.209 -0.0312,0.415 -0.0536,0.622 -0.0136,0.1349 -0.0244,0.2687 -0.0451,0.4013 -0.0323,0.1993 -0.074,0.3926 -0.119,0.5899 -0.0205,0.1134 -0.036,0.2285 -0.0655,0.3399 -0.004,0.0167 -0.0108,0.0323 -0.0176,0.0479 -0.1582,0.6259 -0.3759,1.2373 -0.6347,1.8272 -0.0176,0.0312 -0.0312,0.0712 -0.0431,0.1055 -0.2851,0.6179 -0.6159,1.2129 -0.9873,1.7745 -1.91,2.8632 -4.8758,4.3483 -8.1309,5.1199 -0.8172,0.8203 -1.739,1.6055 -2.7674,2.3341 0.9433,1.0009 1.9726,1.951 3.0098,2.8553 1.0352,0.8906 2.0917,1.7385 3.1161,2.5353 1.0293,0.7872 2.0197,1.5214 2.9347,2.2031 0.9063,0.6834 1.7362,1.3048 2.4364,1.8612 0.5284,0.4297 1.0947,1.0137 1.6778,1.6702 0.5831,0.6542 1.1807,1.3788 1.7745,2.0877 0.5173,0.6143 1.0301,1.211 1.5273,1.7413 0.0703,0.0771 0.1426,0.1571 0.2157,0.2293 0.2237,0.2384 0.4454,0.4493 0.6659,0.6486 0.678,-1.2489 1.2237,-2.5018 1.6535,-3.7131 0.2695,-0.7809 0.4776,-1.5398 0.6522,-2.2754 0.1329,-0.5584 0.2452,-1.1111 0.3243,-1.6384 0.0714,-0.4456 0.121,-0.879 0.1573,-1.2988 0.0332,-0.4102 0.0539,-0.8028 0.0567,-1.1798 0,-0.2336 -0.002,-0.4649 -0.0139,-0.6797 z" />
        <path
           inkscape:connector-curvature="0"
           id="path160"
           style="fill:#009cc1;fill-rule:evenodd"
           d="m 401.7835,234.0709 c 0.3714,-0.5616 0.7022,-1.1566 0.9873,-1.7745 0.0119,-0.0343 0.0255,-0.0743 0.0431,-0.1055 0.2588,-0.5899 0.4765,-1.2013 0.6347,-1.8272 0.0351,-0.1258 0.0575,-0.2568 0.0831,-0.3878 0.045,-0.1973 0.0867,-0.3906 0.119,-0.5899 0.0207,-0.1326 0.0315,-0.2664 0.0451,-0.4013 0.0224,-0.207 0.0431,-0.413 0.0536,-0.622 0.005,-0.1326 0.003,-0.2656 0.003,-0.4005 0,-0.203 -0.003,-0.4102 -0.0168,-0.6171 -0.007,-0.131 -0.0283,-0.2716 -0.0447,-0.4071 -0.0156,-0.1281 -0.0196,-0.2588 -0.0423,-0.3869 -0.0204,-0.1298 -0.0476,-0.2588 -0.0791,-0.3866 -0.6774,-3.0734 -2.6433,-6.2762 -1.3252,-9.4677 0.1242,-0.3068 0.2863,-0.5979 0.4641,-0.8771 0.0399,-0.0587 0.081,-0.1134 0.121,-0.1689 0.0292,-0.0459 0.0627,-0.0899 0.0947,-0.133 0.0275,-0.0399 0.0519,-0.0771 0.0762,-0.1162 0.0343,-0.0388 0.0692,-0.0819 0.1035,-0.1267 0.1063,-0.1349 0.2157,-0.2764 0.3243,-0.4042 0.1729,-0.2033 0.3487,-0.4025 0.5235,-0.6018 0.009,-0.008 0.0185,-0.0196 0.0253,-0.0292 0.3418,-0.3847 0.6854,-0.7685 0.9913,-1.1818 0.9765,-1.3104 1.8272,-2.7088 2.6914,-4.0975 0.9638,-1.5664 2.6629,-3.3944 1.8777,-5.3555 -0.248,-0.6346 -0.7517,-1.3084 -1.3164,-1.9961 -1.1443,-1.3975 -2.535,-2.8573 -2.6064,-4.2205 -0.0185,-0.3614 0.083,-0.6956 0.2471,-1.0012 0.005,-0.003 0.007,-0.005 0.0108,-0.0108 0.0771,-0.1482 0.1718,-0.2888 0.2752,-0.4238 0.1078,-0.1425 0.2217,-0.2715 0.3391,-0.3945 0.0448,-0.044 0.0927,-0.0908 0.1346,-0.1338 0.0547,-0.0536 0.1066,-0.1035 0.1585,-0.1554 0.004,-0.006 0.0105,-0.007 0.0124,-0.0105 0.129,-0.1202 0.2569,-0.2296 0.3898,-0.341 0.032,-0.0252 0.0655,-0.0527 0.0987,-0.0779 0.1289,-0.1094 0.2616,-0.2132 0.3914,-0.3167 0.0927,-0.072 0.1809,-0.1482 0.2744,-0.2137 0.2072,-0.1621 0.4142,-0.3175 0.6103,-0.4853 0.0354,-0.0295 0.0734,-0.0635 0.1114,-0.0958 1.3575,-1.2274 2.0293,-2.7618 1.8672,-4.6094 -0.0935,-1.0653 -0.5284,-1.9942 -1.0732,-2.8865 -1.1327,-1.834 -2.7519,-3.4728 -2.8621,-5.6104 -0.0188,-0.2746 -0.0139,-0.5439 0,-0.8166 0.002,-0.0292 -0.003,-0.0584 0,-0.0879 0.004,-0.0986 0.0104,-0.1962 0.0212,-0.2968 0.0207,-0.2001 0.0451,-0.4014 0.0754,-0.6026 0.0576,-0.3419 0.1327,-0.6778 0.2245,-1.0146 0.0851,-0.3174 0.1894,-0.6278 0.3076,-0.9345 0.005,-0.0148 0.01,-0.0312 0.0139,-0.0448 0.2497,-0.6562 0.5624,-1.2833 0.9158,-1.8851 0.3555,-0.6043 0.7577,-1.1795 1.1963,-1.7246 0.4257,-0.5332 0.8866,-1.0369 1.379,-1.5066 2.4004,-2.3125 5.1395,-3.7998 6.95,-6.7101 1.9434,-3.1306 3.1516,-7.3038 -0.0624,-9.9922 -5.2528,-4.4081 -11.0692,-8.1346 -15.3076,-13.6131 -3.2071,-4.1496 -7.2179,-8.9025 -7.92,-14.1837 -0.161,-1.2007 -0.1502,-2.4367 0.0811,-3.693 0.2863,-1.5843 0.873,-3.043 1.3838,-4.5459 0.007,-0.0102 0.004,-0.0312 0.004,-0.0448 0,0.009 0,0.019 0.003,0.0346 0.171,-0.5074 0.3331,-1.0151 0.4729,-1.5361 0.6199,-2.3091 0.8075,-4.7183 0.7078,-7.1019 -0.1678,-4.237 -0.7489,-8.479 -1.916,-12.5708 -0.4589,-1.6189 -1.0165,-3.2051 -1.6738,-4.741 0,0.0037 -0.0176,0.0241 -0.0196,0.0261 -0.007,0.0082 -0.01,0.0136 -0.0136,0.0238 -0.1806,0.2622 -0.3535,0.523 -0.5264,0.7926 -0.0136,0.017 -0.0275,0.0408 -0.0391,0.0601 -0.009,0.0122 -0.0176,0.0224 -0.0224,0.0366 -0.3319,0.5108 -0.6494,1.0284 -0.955,1.5531 -0.003,0.0034 -0.003,0.0051 -0.008,0.0071 0,0.0034 0,0.0068 -0.002,0.0116 -0.3439,0.5833 -0.699,1.2345 -1.0253,1.8901 -0.0139,0.0292 -0.0363,0.055 -0.0479,0.0859 -0.0292,0.059 -0.0539,0.121 -0.0831,0.1797 -0.3242,0.6679 -0.6366,1.3428 -0.9394,2.0208 -0.3398,0.7526 -0.6681,1.5103 -0.9884,2.2697 0.1446,0.478 0.2931,0.9426 0.4317,1.4117 0.4377,1.436 0.8351,2.9307 1.1458,4.432 0.3104,1.5049 0.5309,3.0254 0.621,4.5425 0.0964,1.5151 0.0624,3.0336 -0.1485,4.5303 -0.1066,0.7574 -0.2676,1.4927 -0.4541,2.2246 -0.1925,0.7246 -0.4365,1.4409 -0.7313,2.147 -0.1242,0.3016 -0.2931,0.9077 -0.4573,1.6739 -0.5283,2.4471 -0.794,5.0122 -0.0243,7.4381 0.7313,2.3065 2.2745,4.2185 3.6756,6.1512 0.1486,0.2021 0.296,0.4033 0.4386,0.6074 0.5918,0.8467 1.2413,1.7158 1.9091,2.5821 0.2863,0.3623 0.5627,0.7313 0.8527,1.0936 0.4413,0.546 0.8906,1.0911 1.3583,1.6223 1.4874,1.7022 3.0702,3.2743 4.6786,4.4821 0.4105,0.3107 0.8175,0.6146 1.2248,0.9269 0.2333,0.171 0.4561,0.3447 0.6855,0.5145 0.6338,0.4768 1.2637,0.9513 1.8915,1.429 0.627,0.4753 1.2549,0.9462 1.8692,1.4247 0.625,0.4785 1.2393,0.9533 1.8468,1.4298 0.1533,0.121 0.3174,0.2452 0.4861,0.3622 0.3019,0.2101 0.6282,0.4286 0.9581,0.6494 0.5196,0.3447 1.046,0.6974 1.5381,1.0761 0.4912,0.3829 0.9385,0.7911 1.3008,1.2384 0.3555,0.4434 0.6182,0.9363 0.7305,1.4823 0.212,1.002 0.167,2.0724 -0.085,3.1583 -0.252,1.082 -0.7042,2.1756 -1.2977,3.2128 -0.5919,1.0352 -1.332,2.0293 -2.1504,2.9035 -0.8175,0.876 -1.7257,1.6416 -2.6544,2.2335 -0.9649,0.6071 -1.7881,1.2537 -2.5086,1.9159 -0.1262,0.1091 -0.2452,0.2341 -0.3714,0.3535 -0.1054,0.1015 -0.2216,0.2049 -0.3231,0.3047 -0.2676,0.2832 -0.5284,0.572 -0.7804,0.8768 -0.9765,1.1973 -1.6288,2.3887 -2.0401,3.5039 -0.0652,0.178 -0.1171,0.3517 -0.1718,0.5275 -0.0283,0.0935 -0.0654,0.1874 -0.0898,0.2801 -0.2206,0.7883 -0.3212,1.5148 -0.3331,2.1378 0,0.0264 0,0.0536 0,0.078 0,0.8048 0.2344,1.5432 0.5879,2.2402 0.3702,0.7305 0.8674,1.4103 1.3742,2.0812 0.3643,0.4932 0.7314,0.9805 1.0497,1.4678 0.0791,0.1199 0.1582,0.2441 0.2305,0.3719 0.4221,0.7257 0.7599,1.4797 0.8994,2.3117 0.1534,0.8243 0.1174,1.7246 -0.1981,2.747 -0.1075,0.3447 -0.2724,0.6611 -0.4833,0.9581 -0.1282,0.1758 -0.2699,0.3447 -0.421,0.5105 -0.4121,0.4349 -0.9042,0.8331 -1.3946,1.2178 -0.4865,0.3906 -0.9805,0.762 -1.3859,1.1534 -0.409,0.3955 -0.7305,0.8036 -0.8887,1.2629 -0.1074,0.3231 -0.0731,0.6386 0.0548,0.9626 0.1241,0.3166 0.3526,0.6358 0.5978,0.9465 0.2517,0.3095 0.538,0.6111 0.8076,0.9082 0.2684,0.2928 0.5136,0.5791 0.6902,0.8527 0.3487,0.5468 0.7316,1.0389 1.0732,1.5077 0.345,0.4745 0.6457,0.9287 0.8459,1.3944 0.2069,0.4697 0.3055,0.957 0.2324,1.4981 -0.0683,0.542 -0.3067,1.1426 -0.7744,1.838 -0.4385,0.6366 -0.8595,1.2929 -1.2793,1.9698 -0.3195,0.4969 -0.6435,1.0105 -0.9745,1.5145 -0.1075,0.1659 -0.2109,0.332 -0.3175,0.4901 -0.4422,0.6682 -0.9031,1.3284 -1.3947,1.961 -0.4872,0.6347 -1.0077,1.2501 -1.5789,1.8241 -0.71,0.7198 -1.1378,1.4894 -1.3555,2.2901 -0.2168,0.8008 -0.2305,1.6396 -0.1134,2.5098 0.1134,0.8643 0.3626,1.7638 0.6642,2.6847 0.5987,1.8125 1.296,3.6074 1.3184,5.5469 0.002,0.1953 -0.005,0.3866 -0.0117,0.5799 -0.007,0.0559 -0.007,0.1143 -0.0119,0.1718 -0.0691,1.2989 -0.3455,2.6076 -0.7304,3.8537 -0.0341,0.1239 -0.0723,0.2481 -0.1143,0.3691 -0.0655,0.2013 -0.1307,0.4042 -0.2069,0.6007 -0.1641,0.4657 -0.3535,0.9286 -0.5488,1.3875 -0.0723,0.1582 -0.1514,0.3175 -0.2276,0.4765 -0.1378,0.3011 -0.2832,0.5967 -0.4366,0.8907 -0.0399,0.0742 -0.0703,0.1525 -0.1122,0.2236 -0.0519,0.1006 -0.1142,0.1933 -0.1709,0.2903 -0.1798,0.3172 -0.3643,0.6287 -0.5576,0.9354 -0.0587,0.0947 -0.1134,0.1973 -0.1721,0.288 -0.0173,0.0315 -0.0623,0.0851 -0.1006,0.1378 -0.1726,0.2197 -0.4901,0.5955 -0.6035,0.7265 -0.006,0.004 -0.0176,0.0176 -0.0244,0.0264 -0.2041,0.2364 -0.3906,0.4912 -0.5907,0.7373 -0.0408,0.0566 -0.0927,0.0997 -0.1378,0.1544 -0.4002,0.4822 -0.8144,0.9491 -1.2637,1.3944 3.2551,-0.7716 6.2209,-2.2567 8.1309,-5.1199 z m -5.9247,-115.274 0,0 c 0,-0.0136 -0.004,-0.0343 -0.004,-0.0499 0,-0.0831 -0.003,-0.1641 -0.007,-0.2472 -0.007,-0.1239 -0.0292,-0.2588 -0.007,-0.3793 0.0107,0.2277 0.0136,0.4536 0.0175,0.6764 z m -0.1309,-2.1433 0,0 c 0.003,0.0275 0.007,0.0587 0.01,0.0862 -0.003,-0.0241 -0.0116,-0.0465 -0.0116,-0.0723 0,-0.004 0.002,-0.0125 0.002,-0.0139 z" />
        <path
           inkscape:connector-curvature="0"
           id="path162"
           style="fill:#ffffff;fill-rule:evenodd"
           d="m 348.101,163.3802 -2.3672,-2.5078 -0.546,3.412 -3.1161,1.4766 3.0682,1.5732 0.4437,3.4232 2.4451,-2.4356 3.3897,0.6347 -1.5585,-3.0753 1.6523,-3.0283 -3.4112,0.5273 z" />
        <path
           inkscape:connector-curvature="0"
           id="path164"
           style="fill:#ffffff;fill-rule:evenodd"
           d="m 370.4321,173.5659 -2.38,-2.5118 -0.5528,3.4161 -3.1297,1.4862 3.085,1.578 0.4492,3.4356 2.454,-2.4451 3.4033,0.6386 -1.5682,-3.0861 1.658,-3.043 -3.4188,0.5315 z" />
        <path
           inkscape:connector-curvature="0"
           id="path166"
           style="fill:#ffffff;fill-rule:evenodd"
           d="m 368.4702,147.56 -0.508,3.168 -2.9021,1.3788 2.8613,1.4658 0.4099,3.1827 2.2785,-2.2677 3.1552,0.5967 -1.4502,-2.8681 1.5361,-2.8165 -3.1717,0.4904 -2.209,-2.3301 z" />
        <path
           inkscape:connector-curvature="0"
           id="path168"
           style="fill:#ffffff;fill-rule:evenodd"
           d="m 364.0581,161.0521 1.4031,-2.5741 -2.8973,0.4492 -2.0205,-2.1308 -0.4629,2.8965 -2.6544,1.2597 2.6144,1.3408 0.3799,2.9112 2.0812,-2.0705 2.8825,0.5381 -1.326,-2.6201 z" />
        <path
           inkscape:connector-curvature="0"
           id="path170"
           style="fill:#ffffff;fill-rule:evenodd"
           d="m 356.7855,148.3333 1.6895,-3.0965 -3.4844,0.5487 -2.4259,-2.5673 -0.5524,3.4824 -3.1856,1.5117 3.1357,1.6095 0.4541,3.494 2.4998,-2.4843 3.468,0.6494 -1.5988,-3.1476 z" />
      </g>
    </g>
  </g>
</svg>
