<?xml version="1.0" encoding="UTF-8" standalone="no"?>
<!-- Created with Inkscape (http://www.inkscape.org/) -->

<svg
   xmlns:dc="http://purl.org/dc/elements/1.1/"
   xmlns:cc="http://creativecommons.org/ns#"
   xmlns:rdf="http://www.w3.org/1999/02/22-rdf-syntax-ns#"
   xmlns:svg="http://www.w3.org/2000/svg"
   xmlns="http://www.w3.org/2000/svg"
   xmlns:sodipodi="http://sodipodi.sourceforge.net/DTD/sodipodi-0.dtd"
   xmlns:inkscape="http://www.inkscape.org/namespaces/inkscape"
   width="212.51334mm"
   height="245.33611mm"
   viewBox="0 0 753.00001 869.30116"
   id="svg4174"
   version="1.1"
   inkscape:version="0.91 r13725"
   sodipodi:docname="wosm.svg">
  <defs
     id="defs4176" />
  <sodipodi:namedview
     id="base"
     pagecolor="#ffffff"
     bordercolor="#666666"
     borderopacity="1.0"
     inkscape:pageopacity="0.0"
     inkscape:pageshadow="2"
     inkscape:zoom="0.35"
     inkscape:cx="-30.427726"
     inkscape:cy="460.9877"
     inkscape:document-units="px"
     inkscape:current-layer="layer1"
     showgrid="false"
     inkscape:window-width="1280"
     inkscape:window-height="974"
     inkscape:window-x="0"
     inkscape:window-y="0"
     inkscape:window-maximized="1"
     fit-margin-top="0"
     fit-margin-left="0"
     fit-margin-right="0"
     fit-margin-bottom="0" />
  <metadata
     id="metadata4179">
    <rdf:RDF>
      <cc:Work
         rdf:about="">
        <dc:format>image/svg+xml</dc:format>
        <dc:type
           rdf:resource="http://purl.org/dc/dcmitype/StillImage" />
        <dc:title></dc:title>
      </cc:Work>
    </rdf:RDF>
  </metadata>
  <g
     inkscape:label="Camada 1"
     inkscape:groupmode="layer"
     id="layer1"
     transform="translate(44.572274,-124.04871)">
    <path
       style="fill:#801aa4;fill-opacity:1"
       d="m 323.93555,124.05106 c 2.56203,0.0132 5.91119,0.0815 10.35547,0.17383 9.89608,0.2055 18.32988,0.71075 18.74218,1.12305 0.4123,0.4123 -0.41964,1.98158 -1.84765,3.48828 -1.48439,1.5663 -3.25346,5.28333 -4.13086,8.67773 -1.05594,4.0851 -2.56228,6.96387 -4.83008,9.22657 l -3.29688,3.28711 -18.25,0.5957 c -10.54872,0.3443 -18.25,0.21782 -18.25,-0.30078 0,-0.4934 1.06661,-1.89945 2.36915,-3.12305 1.69836,-1.5956 2.55296,-3.78997 3.01953,-7.75976 0.74233,-6.31611 2.32766,-9.84187 5.95117,-13.22657 1.87445,-1.75087 2.48188,-2.20171 10.16797,-2.16211 z m -21.64649,1.22852 c 1.03573,-0.0329 1.67466,-10e-4 1.78516,0.10937 0.23963,0.2397 -0.45746,1.9556 -1.54883,3.8125 -1.09138,1.8568 -2.43097,6.16282 -2.97656,9.57032 -1.64282,10.2604 -3.81748,12.70481 -12.63281,14.19921 -3.29323,0.55831 -11.38829,1.93345 -17.98829,3.05665 -6.6,1.1232 -12.09867,2.04687 -12.2207,2.04687 -0.12202,0.002 0.89048,-2.08958 2.25,-4.64648 1.86548,-3.5085 2.4707,-6.17394 2.4707,-10.86524 0,-5.9734 1.76828,-10.13103 5.37696,-12.64453 1.50881,-1.05087 28.2343,-4.4082 35.48437,-4.63867 z m 65.17188,0.99609 c 1.53357,-0.0363 3.32967,0.0441 5.46679,0.19141 18.22277,1.2559 33.37208,4.63851 28.57032,6.3789 -2.69345,0.97631 -5.96924,5.4138 -7.58399,10.2754 -0.98233,2.9575 -2.97476,6.0545 -5.08594,7.9082 -1.90844,1.6756 -4.01522,2.99087 -4.68359,2.92187 -0.66836,-0.0686 -3.6918,-0.48412 -6.7168,-0.92382 -3.025,-0.4397 -10.7875,-1.11661 -17.25,-1.50391 -6.4625,-0.3874 -11.75,-1.01884 -11.75,-1.40234 0,-0.3834 1.07842,-1.70696 2.39454,-2.94336 1.31612,-1.2365 3.6118,-5.59555 5.10351,-9.68555 3.17384,-8.70212 4.88969,-11.05965 11.53516,-11.2168 z m -112.11328,5.88281 c 0.34171,0.0175 0.57019,0.0741 0.66992,0.17383 0.20958,0.2096 -0.51184,2.13214 -1.60352,4.27344 -1.38215,2.711 -1.98633,5.88372 -1.98633,10.44922 0,9.1087 -2.68002,13.05849 -10.13671,14.93359 -2.94905,0.7416 -10.08829,2.82817 -15.86329,4.63477 -5.775,1.8066 -11.2875,3.59421 -12.25,3.97461 -2.14061,0.8461 -2.1473,0.67456 -0.1582,-4.08594 1.14303,-2.7357 1.40847,-5.28516 0.93945,-9.03906 -0.6815,-5.4546 0.52131,-11.62038 2.86329,-14.67188 1.85263,-2.41387 32.39964,-10.90528 37.52539,-10.64258 z m 159.1289,1.37305 c 0.99723,-0.0294 2.0579,0.0922 3.20118,0.35352 16.04093,3.6668 32.78369,8.79684 32.71289,10.02343 -0.0212,0.367 -1.47366,1.56928 -3.22657,2.67188 -1.7529,1.1026 -4.91327,4.61383 -7.02343,7.80273 -2.11016,3.1888 -5.27019,6.67319 -7.02344,7.74219 -3.83534,2.3386 -3.17625,2.36672 -13.68945,-0.58008 -4.675,-1.3104 -12.06829,-3.08355 -16.42969,-3.93945 -4.36142,-0.8558 -8.17192,-1.7989 -8.46875,-2.0957 -0.29682,-0.2968 0.90507,-1.66958 2.66992,-3.05078 1.76486,-1.3812 4.66108,-5.4307 6.4375,-9 3.39732,-6.8263 6.51855,-9.80041 10.83984,-9.92774 z m -206.41015,12.15039 c 1.26192,0.042 1.30402,0.75946 0.16015,2.14258 -0.9057,1.0952 -1.22742,4.47674 -1.0664,11.17774 0.29663,12.344 -0.90285,14.55921 -9.78125,18.07421 -3.47302,1.375 -10.76071,4.6375 -16.19532,7.25 -5.43461,2.6125 -10.12666,4.75 -10.42578,4.75 -0.29912,0 -0.26783,-0.71765 0.0684,-1.59375 1.64876,-4.2966 1.77249,-7.20003 0.58008,-13.51953 -1.00422,-5.3222 -1.03562,-7.75108 -0.14063,-10.73828 1.08673,-3.6272 1.71562,-4.10446 10.41016,-7.91406 14.93611,-6.54438 23.6144,-9.72121 26.39063,-9.62891 z m 252.14648,1.89649 c 2.03661,-0.0661 4.30833,0.47422 7.01758,1.53125 22.1134,8.6275 33.04755,14.96679 25.81445,14.96679 -2.3622,0 -8.1849,5.45779 -10.5625,9.90039 -0.6117,1.1429 -2.33778,2.7018 -3.83398,3.4629 -4.6195,2.3496 -6.62047,2.59241 -9.32227,1.13281 -4.7365,-2.559 -25.81587,-10.4961 -27.875,-10.4961 -3.03269,0 -2.43632,-2.73405 0.98243,-4.50195 1.653,-0.8548 4.18308,-3.45554 5.62304,-5.77734 4.33574,-6.99105 7.67573,-10.07331 12.15625,-10.21875 z m -297.39648,16.49804 c 0.0964,0 0.21271,3.0375 0.25781,6.75 0.0451,3.7125 0.40841,9.225 0.80664,12.25 1.01437,7.7053 -0.22909,10.15848 -7.13477,14.08008 -3.19951,1.817 -9.91225,5.91673 -14.91601,9.11133 -5.00377,3.1946 -9.41811,5.80859 -9.81055,5.80859 -0.39245,0 -0.42005,-1.96207 -0.0606,-4.35937 0.51563,-3.4384 0.18077,-5.286 -1.59179,-8.75 -2.24007,-4.3776 -3.02092,-10.83585 -1.70703,-14.12305 0.85863,-2.1482 11.88324,-9.27681 24.46679,-15.82031 5.23247,-2.7208 9.59306,-4.94727 9.68946,-4.94727 z m 341.36719,3.1211 c 2.15954,0.12497 4.58574,1.09035 7.74414,2.79297 12.8161,6.9088 26.50874,15.56338 26.18554,16.55078 -0.1864,0.5695 -1.55009,1.17861 -3.02929,1.35351 -1.5517,0.1835 -5.11368,2.54709 -8.42188,5.58789 -3.1534,2.8985 -7.26331,5.79254 -9.13281,6.43164 -4.2802,1.463 -3.62326,1.62536 -10.10156,-2.49804 -3.025,-1.9253 -10.1125,-5.77856 -15.75,-8.56446 -5.6375,-2.7859 -10.25,-5.41635 -10.25,-5.84375 0,-0.4273 1.55653,-1.28881 3.45703,-1.91601 2.1384,-0.7058 5.40451,-3.39258 8.57031,-7.04688 4.2715,-4.93068 7.12928,-7.05594 10.72852,-6.84765 z m -383.33399,21.8789 c 0.33191,0 0.32694,1.72243 -0.01,3.82813 -0.45553,2.8488 0.0534,5.49152 1.98828,10.32812 2.84757,7.1178 3.27764,11.60073 1.34961,14.04883 -0.6875,0.8729 -5.75,5.18875 -11.25,9.58985 -5.5,4.4011 -11.32014,9.39741 -12.935544,11.10351 l -0.002,0 c -1.6154,1.706 -3.3029,3.10156 -3.75,3.10156 -0.4471,0 -0.8125,-1.75955 -0.8125,-3.91015 0,-2.2686 -1.258,-6.5719 -2.99804,-10.25 -1.83705,-3.8832 -2.99952,-7.95366 -3,-10.50586 -7.7e-4,-4.0593 0.23628,-4.35587 9.24804,-11.51367 9.487704,-7.5359 21.098214,-15.82032 22.171884,-15.82032 z m 424.70899,3.29297 c 1.72496,0.008 3.37509,0.61582 5.07226,1.79688 7.1058,4.9447 26.79688,21.09416 26.79688,21.97656 0,0.5136 -1.24192,0.93359 -2.76172,0.93359 -1.5728,0 -5.07541,1.6157 -8.12891,3.75 -2.9507,2.0625 -6.31943,4.30498 -7.48633,4.98438 -3.3739,1.9642 -8.17402,1.50923 -11.29492,-1.07227 -1.5547,-1.286 -8.11562,-6.05817 -14.57812,-10.60547 -6.4625,-4.5473 -11.75,-8.6704 -11.75,-9.16211 0,-0.4918 1.1553,-0.89453 2.5664,-0.89453 3.406,0 5.96912,-1.44239 11.75782,-6.62109 3.84962,-3.444 6.9317,-5.09908 9.80664,-5.08594 z m -214.42188,24.70703 c 0.47646,0 3.10076,2.30279 5.83008,5.11719 8.10848,8.3612 24.3548,22.01396 35.51953,29.84766 6.21583,4.3613 15.09564,12.02168 21.9414,18.92968 33.93551,34.24441 46.85876,74.411 37.22852,115.7129 -4.82392,20.6878 -11.68124,38.88535 -25.14258,66.72265 -10.12107,20.9299 -16.68117,37.06169 -23.16406,56.96289 -3.77029,11.5741 -9.89341,38.48561 -9.91211,43.56641 l -0.01,2.35937 -11.25,-0.63476 c -6.1875,-0.3488 -14.2875,-0.89384 -18,-1.21094 l -6.75,-0.57617 -0.004,-41.64844 c -0.006,-61.2974 -1.48144,-110.43704 -5.35156,-178.14844 l -1.22852,-21.5 -0.73437,12.5 c -0.40395,6.875 -1.17434,18.35 -1.71094,25.5 -2.2135,29.4941 -5.54595,161.81687 -4.79688,190.47657 l 0.32617,12.47461 -4.5,0.63867 c -2.475,0.3505 -10.44662,0.95259 -17.71484,1.33789 l -13.21484,0.69922 -0.45117,-2.3125 c -0.2486,-1.2726 -1.61113,-8.65887 -3.02735,-16.41407 -3.22836,-17.6783 -11.54169,-43.16629 -21.33203,-65.40039 -0.84764,-1.925 -5.51463,-11.89239 -10.37109,-22.15039 -25.77568,-54.4447 -31.59078,-83.90081 -23.06641,-116.84961 6.22064,-24.0443 18.60011,-44.6329 38.78125,-64.5 4.46955,-4.4 11.89977,-10.68394 16.51172,-13.96484 12.72765,-9.0543 23.32483,-17.6711 34.55664,-28.0957 5.59421,-5.1922 10.56065,-9.43946 11.03711,-9.43946 z m -249.304694,1.5 0.63867,5 c 0.35293,2.7644 2.04227,7.4592 3.7793,10.5 2.00415,3.5084 3.14856,6.89286 3.16016,9.34766 0.0168,3.5727 -0.88309,4.7896 -12.57227,17 -6.92475,7.2335 -12.99975,13.30303 -13.5,13.48633 -0.50026,0.1834 -0.91016,-1.69523 -0.91016,-4.17383 0,-3.27 -0.64747,-5.28288 -2.35937,-7.33398 -3.69979,-4.4328 -5.64063,-8.90143 -5.64063,-12.98633 0,-3.5033 0.93269,-4.67823 13.70313,-17.29883 z m 504.435554,4.25782 13.08008,13.12304 c 7.1944,7.2177 13.08007,13.51489 13.08007,13.99219 0,0.4773 -2.03247,1.09685 -4.51757,1.37695 -2.5703,0.2897 -6.3427,1.71846 -8.75,3.31446 -2.7936,1.8522 -5.94951,2.94941 -9.28711,3.22851 l -5.05664,0.42188 -5.80078,-6.03906 c -3.1902,-3.32141 -9.12686,-8.87014 -13.19336,-12.33204 -4.0665,-3.4619 -7.39453,-6.584 -7.39453,-6.9375 0,-0.3536 1.82243,-0.88694 4.04882,-1.18554 2.34101,-0.314 6.31443,-2.1046 9.42383,-4.2461 3.543,-2.4402 6.9094,-3.87518 9.8711,-4.20898 z M 47.177726,255.13505 c 0.68858,-0.0325 1.25,1.08563 1.25,2.49023 0,3.0636 1.78098,6.66398 5.77149,11.67188 1.6307,2.0464 3.25342,5.53229 3.60742,7.74609 0.60857,3.8058 0.27155,4.5298 -6.19336,13.2832 -3.76063,5.0919 -8.55395,11.84351 -10.65234,15.00391 -2.09838,3.1604 -3.98848,5.74609 -4.19922,5.74609 -0.50137,0 -2.33399,-4.83375 -2.33399,-6.15625 0,-0.564 -1.96318,-3.34589 -4.36328,-6.18359 -8.65842,-10.2372 -8.69714,-12.14798 -0.47656,-23.01758 9.9036,-13.0951 16.24845,-20.52098 17.58984,-20.58398 z m 568.781254,3.0664 c 2.8419,0.11067 5.05948,1.41701 7.20118,3.94141 4.5567,5.3709 20.26757,26.38202 20.26757,27.10742 7e-4,0.3703 -2.3625,0.62536 -5.25,0.56836 -3.4264,-0.0677 -6.94385,0.65503 -10.12695,2.07813 l 0,-0.002 c -2.6824,1.1992 -6.55577,2.18164 -8.60937,2.18164 -3.5819,0 -4.22825,-0.58959 -15.87305,-14.49609 -6.6765,-7.9731 -12.14062,-14.7793 -12.14062,-15.125 0,-0.3452 1.38597,-0.35247 3.08007,-0.0137 2.3428,0.4686 4.85822,-0.25096 10.50781,-3.00586 4.63571,-2.26045 8.10146,-3.34504 10.94336,-3.23438 z m -598.449214,35.875 c 0.41761,0 1.07394,1.4344 1.45898,3.1875 0.39223,1.7858 2.89247,5.50388 5.68359,8.45508 2.73992,2.897 5.53837,6.88614 6.21875,8.86524 1.20398,3.5022 1.04133,3.96515 -6.08007,17.28515 -4.02435,7.5271 -7.83192,14.92672 -8.46094,16.44532 -1.7216,4.1564 -3.03883,3.72174 -4.26367,-1.41016 -0.35748,-1.4978 -3.0150703,-4.70482 -6.0468803,-7.29492 -3.28834,-2.8093 -6.04504999,-6.21098 -7.03125,-8.67578 l -1.62305,-4.05274 3.67383,-6.65234 c 5.88128,-10.6504 15.6441603,-26.15235 16.4707103,-26.15235 z m 626.597654,3.08008 c 1.98315,0.0808 3.64187,0.46316 4.55664,1.16992 1.9763,1.5269 11.16609,16.61622 16.14649,26.51172 l 3.65429,7.25977 -5.35546,-0.62891 c -3.64571,-0.4285 -7.13138,-0.11362 -10.92188,0.98828 -3.062,0.8902 -5.72181,1.57263 -5.91211,1.51563 -0.1904,-0.0568 -1.93164,-0.52672 -3.86914,-1.04492 -2.805,-0.7503 -4.11337,-2.00229 -6.42187,-6.14649 -1.59451,-2.8624 -5.6565,-9.48008 -9.0254,-14.70508 -3.3689,-5.225 -6.49817,-10.11252 -6.95507,-10.86132 -0.6763,-1.1085 0.0761,-1.23646 4.05273,-0.68946 3.8155,0.5247 5.86821,0.22512 9.37891,-1.36719 3.16162,-1.43406 7.36662,-2.13664 10.67187,-2.00195 z M -6.5625043,336.07645 c 0.32451,0 1.17058,1.60807 1.88086,3.57227 0.85104,2.3536 3.30978,5.13847 7.21094,8.16797 7.4769903,5.8064 9.1231203,10.0071 6.46679,16.5 -0.95845,2.3427 -3.75572,9.65976 -6.21679,16.25976 -2.46106999,6.6 -4.81119,12.34177 -5.22266,12.75977 -0.41148,0.418 -1.47359,-0.7634 -2.36133,-2.625 -0.96944,-2.033 -3.92682,-4.93227 -7.4042897,-7.25977 -3.18439,-2.1314 -6.65584,-5.37041 -7.7129,-7.19921 -1.6957,-2.93351 -1.77751,-3.8164 -0.69335,-7.5 1.63183,-5.54431 13.3003497,-32.67579 14.0527297,-32.67579 z M 666.6875,339.77958 c 5.27492,0.0276 6.26905,1.60056 10.34375,10.9082 3.4502,7.881 10.39648,25.81781 10.39648,26.8457 0,0.8828 -1.32024,0.56074 -4.27734,-1.04296 -2.1458,-1.1637 -4.1934,-1.32741 -9,-0.72071 -3.4222,0.432 -7.12266,0.67281 -8.22266,0.53711 -3.7301,-0.4604 -8.3763,-3.60279 -9,-6.08789 -0.3406,-1.357 -3.51649,-8.53823 -7.05859,-15.95703 -3.542,-7.4188 -6.44141,-13.57298 -6.44141,-13.67578 0,-0.1029 3.2625,-0.25108 7.25,-0.33008 3.9875,-0.0788 10.0485,-0.26451 13.4668,-0.41211 0.94974,-0.041 1.78941,-0.0684 2.54297,-0.0644 z m -4.36328,42.39844 c 0.61255,0.0259 1.78148,0.35109 3.0039,0.85742 1.6299,0.6752 6.03105,1.13554 9.78126,1.02344 9.9262,-0.2967 10.55034,-0.19177 13.56054,2.27343 2.0896,1.7112 3.43254,4.62184 5.64844,12.24414 2.8563,9.8256 6.10937,23.37687 6.10937,25.44727 0,1.4077 -0.9368,1.27781 -4.4375,-0.61719 -1.6156,-0.8745 -5.8906,-1.78674 -9.5,-2.02734 -3.6093,-0.2406 -8.25727,-1.15525 -10.33007,-2.03125 -3.3508,-1.416 -3.93483,-2.21164 -5.26563,-7.18164 -0.8232,-3.0743 -3.28169,-10.96099 -5.46289,-17.52539 -2.1812,-6.5645 -3.76262,-12.13777 -3.51562,-12.38477 0.0618,-0.0618 0.20402,-0.0868 0.4082,-0.0781 z m -686.794924,0.14453 c 0.5147,-0.004 0.93846,0.77527 1.30859,2.25 0.44207,1.7614 2.85164,4.00695 7.57813,7.06445 7.6769297,4.9662 10.0191997,7.63911 9.9999997,11.41211 -0.007,1.3901 -1.58053,8.82734 -3.4961,16.52734 -1.9155697,7.7 -3.4843297,15.0125 -3.4863297,16.25 -0.006,3.1221 -1.04939,2.81997 -4.28906,-1.24023 -1.53136,-1.9192 -4.00636,-3.78639 -5.5,-4.15039 -3.95177,-0.9631 -10.53817,-5.72535 -12.19141,-8.81445 -1.29723,-2.4239 -1.11587,-3.88903 1.95899,-15.85743 4.20902,-16.38285 6.57308,-23.43033 8.11719,-23.4414 z m 166.890624,2.23047 c 8.21273,-0.0908 16.47331,0.82682 24.24414,2.80078 29.68589,7.5408 52.96587,24.99525 72.94141,54.68945 7.22493,10.74 17.67814,31.1087 22.33984,43.5332 6.8773,18.3295 15.11076,50.12784 17,65.64844 0.79462,6.528 1.35718,6.19589 -12.51758,7.39649 -4.125,0.3569 -12.89791,1.70966 -19.49609,3.00586 -6.59818,1.29629 -12.28524,2.03914 -12.63867,1.65234 -0.35342,-0.3868 -1.41262,-3.40313 -2.35352,-6.70313 -2.66573,-9.3495 -10.00199,-23.49495 -15.88476,-30.62695 -10.78225,-13.0718 -21.51836,-18.7997 -35.31836,-18.8457 -16.66137,-0.055 -29.90329,7.99364 -36.75,22.33984 -4.41119,9.2429 -5.89905,17.28439 -5.38281,29.08789 l 0.41796,9.54492 -9.04687,-0.0781 c -16.98416,-0.1482 -35.890414,-6.94148 -49.021494,-17.61328 -26.85676,-21.8267 -37.664,-63.5531 -25.85156,-99.8086 8.22973,-25.2592 25.57904,-45.52925 49.134774,-57.40625 10.94037,-5.51618 24.49571,-8.46593 38.18359,-8.61718 z m 377.20508,0.62695 c 4.29509,0.01 8.41475,0.49247 13.26172,1.41992 19.8465,3.7977 33.12624,10.51677 47.39844,23.98047 12.6312,11.9156 20.72345,24.77099 26.75195,42.49609 2.7882,8.198 2.89062,9.175 2.89062,27.5 0,17.0059 -0.24058,19.7872 -2.30468,26.5 -5.0033,16.2718 -10.12741,25.64648 -19.47461,35.63868 -10.2848,10.9945 -22.74599,18.34917 -38.83789,22.92187 -5.3343,1.5158 -13.22336,2.89767 -18.28516,3.20117 l -8.90234,0.53321 0.64648,-6.39844 c 0.9054,-8.9572 -0.77534,-21.6782 -4.05664,-30.7207 -3.8313,-10.5585 -11.62122,-18.58866 -21.95312,-22.62696 -6.4613,-2.5254 -8.0406,-2.75205 -16,-2.31054 -10.0369,0.5568 -16.92067,3.15101 -25.64453,9.66601 -12.62566,9.4288 -22.9919,25.09547 -26.22657,39.63477 -0.91306,4.104 -2.17825,7.45145 -2.81054,7.43945 -0.63229,-0.012 -5.02458,-0.87848 -9.75977,-1.92578 -4.73519,-1.0472 -13.28519,-2.42008 -19,-3.05078 -16.64674,-1.837 -15.26639,-0.99879 -14.48438,-8.80469 0.36904,-3.6837 2.27847,-13.88076 4.24414,-22.66016 10.57375,-47.2262 29.20831,-84.72045 53.98438,-108.62695 18.2264,-17.5868 35.37007,-26.69462 59.19727,-31.44922 8.02963,-1.60234 13.84298,-2.37018 19.36523,-2.35742 z M 674.89453,426.387 c 0.52893,-0.022 2.05356,0.64616 3.67188,1.63281 2.448,1.4924 5.07611,2.05274 9.66211,2.05274 6.4739,0.004 10.48746,1.40624 13.32226,4.65234 1.4862,1.7019 2.8902,10.32456 5.4707,33.60156 0.3506,3.1625 0.42045,5.75 0.15625,5.75 -0.2642,0 -1.64977,-0.91982 -3.08007,-2.04492 -1.4304,-1.1251 -5.20337,-2.5333 -8.38477,-3.1289 -12.8171,-2.3996 -15.71872,-4.86096 -16.57812,-14.06446 -0.331,-3.5439 -1.56153,-11.27734 -2.73633,-17.18554 -1.1748,-5.9082 -1.92492,-10.954 -1.66602,-11.21289 0.0324,-0.0324 0.0865,-0.0496 0.16211,-0.0527 z m -712.265624,3.84766 c 0.72704,-0.0949 1.71936,0.74053 3.0957,2.49023 1.14588,1.4568 4.89375,3.92327 8.32812,5.48047 8.43761,3.8258 11.89232,8.27887 10.96485,14.13477 -1.66575,10.5172 -2.50432,18.74982 -2.54492,24.98632 -0.0241,3.7125 -0.41033,6.75 -0.85743,6.75 -0.4471,0 -2.05836,-1.30022 -3.58203,-2.89062 -1.73592,-1.8119 -4.97108,-3.51068 -8.66406,-4.54688 -3.69961,-1.038 -7.17802,-2.86359 -9.3418,-4.90429 -3.38165,-3.1893 -3.43581,-3.37338 -2.93164,-9.70508 0.43884,-5.5112 1.58734,-13.70813 4.02344,-28.70313 0.32026,-1.9713 0.78272,-2.99684 1.50977,-3.09179 z m 168.841794,4.38476 -4.67578,4.47852 c -2.57116,2.4632 -6.24044,6.04252 -8.1543,7.95312 l -3.48046,3.47266 -9.86524,-5.27148 c -5.426394,-2.8993 -9.867194,-5.11789 -9.867194,-4.92969 0,0.1883 2.02439,4.37333 4.49805,9.29883 2.473674,4.9255 4.499004,9.39569 4.500004,9.93359 10e-4,0.5378 -3.48555,4.50576 -7.748054,8.81836 l -7.75,7.8418 3.5,-0.55274 c 1.925,-0.3039 6.17009,-1.01141 9.433604,-1.57031 9.62666,-1.6488 9.11523,-1.95039 14.27929,8.44531 2.58474,5.2033 4.82164,9.33855 4.97071,9.18945 0.22269,-0.2227 4.3164,-20.1987 4.3164,-21.0625 0,-0.1456 4.50537,-0.83921 10.01172,-1.54101 5.50634,-0.7017 10.20401,-1.58509 10.4375,-1.96289 0.2335,-0.3778 -3.82189,-2.82375 -9.01172,-5.43555 -5.18984,-2.6117 -9.4375,-4.96943 -9.4375,-5.24023 0,-0.2709 0.63446,-3.73688 1.40821,-7.70118 0.77374,-3.9643 1.68189,-8.77234 2.01953,-10.68554 z m 422.98243,0.45703 c -0.3162,0 -3.89959,3.3469 -7.96289,7.4375 l -7.38672,7.4375 -9.56836,-4.87304 c -5.262,-2.6807 -9.67113,-4.77038 -9.79883,-4.64258 -0.1278,0.1278 1.77607,4.19943 4.23047,9.04883 2.4544,4.8494 4.46094,9.32049 4.46094,9.93359 0,0.6132 -3.42237,4.55587 -7.60547,8.76367 l -7.60547,7.65235 8.85547,-1.375 c 4.8706,-0.7555 9.59449,-1.54556 10.49609,-1.75586 2.503,-0.5837 3.11631,0.1908 7.72461,9.75 2.3538,4.8828 4.62668,8.4828 5.05078,8 0.4241,-0.4828 1.32214,-4.62905 1.99414,-9.21485 0.672,-4.5858 1.45007,-8.93521 1.73047,-9.66601 0.282,-0.7348 2.82355,-1.61836 5.68555,-1.97657 2.8463,-0.3563 7.79259,-1.13306 10.99219,-1.72656 l 5.8164,-1.08008 -8.8164,-4.45898 c -4.8496,-2.4529 -9.34047,-4.97672 -9.98047,-5.60742 -0.8845,-0.8716 -0.75347,-3.60609 0.54883,-11.39649 0.9425,-5.6375 1.45487,-10.25 1.13867,-10.25 z m 126.88867,36.61914 c 0.44547,-0.11985 1.76953,0.61807 3.1914,1.81446 1.625,1.3673 4.62753,2.7472 6.67383,3.0664 7.1053,1.1082 11.14738,2.56704 14.17578,5.11524 l 3.04492,2.5625 0,18.85156 c 0,10.3686 -0.38351,19.09026 -0.85351,19.38086 -0.4701,0.2905 -1.90681,-0.58973 -3.19141,-1.95703 -1.2845,-1.3673 -4.16163,-2.97642 -6.39453,-3.57422 -6.6692,-1.7855 -11.317,-3.99227 -13.6582,-6.48438 -2.048,-2.18 -2.25516,-3.64034 -2.85156,-20.12304 -0.3536,-9.7748 -0.47579,-18.12018 -0.27149,-18.54688 0.0255,-0.0533 0.0711,-0.0883 0.13477,-0.10547 z m -724.519534,7.38086 c 0.76616,0 1.62578,0.60666 1.91015,1.34766 0.51845,1.3511 8.78579,4.961 13.95313,6.0918 1.51675,0.3319 4.06637,1.83103 5.66601,3.33203 l 2.91016,2.72851 0.44726,18.75 c 0.24697,10.3125 0.13976,18.75 -0.24023,18.75 -0.37998,0 -1.72725,-1.10086 -2.99219,-2.44726 -2.27516,-2.4218 -3.4368,-2.82466 -11.8789,-4.10156 -2.71406,-0.4106 -5.60731,-1.77495 -7.75,-3.65625 l -3.41993,-3.00196 0,-18.89648 c 0,-15.4851 0.25301,-18.89649 1.39454,-18.89649 z m 725.501954,38 c 0.3622,0 1.79283,1.29094 3.17773,2.86914 1.6014,1.8251 4.5914,3.47335 8.2168,4.52735 3.1715,0.9219 7.31304,3.07351 9.33594,4.84961 l 3.63672,3.1914 -0.58203,7.53125 c -0.32051,4.1421 -1.32829,12.70625 -2.23829,19.03125 -0.91,6.325 -1.98743,11.85908 -2.39453,12.29688 -0.407,0.4379 -1.92685,-0.76081 -3.37695,-2.66211 -1.6302,-2.1373 -4.4569,-4.13553 -7.4043,-5.23633 -11.0693,-4.1338 -12.73676,-6.87544 -11.35156,-18.65234 0.5334,-4.5354 1.27438,-12.6336 1.64648,-17.9961 0.3722,-5.3625 0.97189,-9.75 1.33399,-9.75 z m -725.482424,11.4043 c 0.69216,-0.007 2.81086,0.83453 5.10937,2.05664 2.76284,1.469 6.41933,2.53906 8.67578,2.53906 4.27253,0 8.42295,1.77054 10.90039,4.64844 0.98933,1.1493 2.77059,8.67497 4.69141,19.82617 1.7028,9.8855 3.00589,18.06248 2.89648,18.17188 -0.10942,0.1094 -1.99663,-0.88905 -4.19335,-2.21875 -3.01538,-1.8251 -5.43042,-2.42188 -9.85743,-2.42188 -7.26036,-0.006 -13.06224,-2.91997 -14.59961,-7.33007 -1.24779,-3.5794 -4.60437,-34.4425 -3.83007,-35.2168 0.037,-0.037 0.10815,-0.0537 0.20703,-0.0547 z m 720.722654,34.88867 c 0.63732,-0.12505 1.31768,0.60934 2.04297,2.20117 0.8181,1.7954 3.5714,3.81999 8.5293,6.27149 5.2954,2.6184 7.88729,4.57959 9.36719,7.08789 2.3479,3.9794 2.37206,3.82026 -4.02344,26.34766 -2.0606,7.2578 -4.27432,13.37269 -4.91992,13.58789 -0.6456,0.2152 -1.65806,-1.00148 -2.25196,-2.70508 -0.7912,-2.2697 -2.72416,-4.0247 -7.23047,-6.5625 -3.49489,-1.9682 -7.18497,-4.99718 -8.54687,-7.01758 l -2.39648,-3.55469 2.6914,-10.22461 c 1.4797,-5.6234 3.24096,-13.56408 3.91406,-17.64648 0.82138,-4.98156 1.76203,-7.57673 2.82422,-7.78516 z m -346.63672,3.72071 c 37.24485,-0.007 69.44394,2.3396 90.50001,6.5957 13.68114,2.7654 19.93456,5.33466 23.60547,9.69726 2.88452,3.428 2.98246,5.21854 0.50976,9.27344 -4.23135,6.939 -18.64492,10.76857 -54.39063,14.45117 -14.74463,1.519 -28.89402,2.16939 -52.22461,2.40039 -37.14353,0.3676 -41.10479,0.22535 -68.5,-2.46875 -24.47357,-2.4068 -29.85891,-3.27732 -40.93945,-6.60742 -17.73623,-5.3304 -20.38415,-15.90034 -5.61914,-22.43164 14.51007,-6.4185 58.48527,-10.90015 107.05859,-10.91015 z m -366.894534,9.12695 c 0.55369,0.0156 1.61003,0.62932 3.6211,1.85547 2.44433,1.4903 5.04759,1.9939 10.27343,2.0039 9.75525,0.0104 12.7805097,1.96659 14.9687497,9.67969 0.90817,3.2012 3.35101,11.12738 5.42774,17.61328 2.07673001,6.4859 3.50677,11.95871 3.17773,12.16211 -0.32905,0.2033 -1.71782999,-0.25051 -3.08593,-1.00781 -1.56566,-0.8666 -5.74839,-1.39011 -11.2871097,-1.41211 -10.42744,-0.042 -14.05888,-1.50348 -15.57032,-6.26758 -2.05437,-6.4755 -8.13086,-31.05522 -8.13086,-32.89062 0,-1.1696 0.0518,-1.75192 0.60547,-1.73633 z m 365.714854,2.41406 c -24.4962,-0.004 -48.68327,1.1619 -70.32032,3.50195 -9.91827,1.0726 -27.93131,4.71031 -29.28125,5.91211 -2.43281,2.1658 35.39355,7.97877 61.28125,9.41797 3.575,0.199 24.725,0.22841 47,0.0664 40.51265,-0.2947 56.88674,-1.42863 80.97071,-5.61133 7.08308,-1.2301 12.78613,-3.27073 11.40625,-4.08203 -2.17689,-1.2798 -19.81415,-4.74784 -28.87695,-5.67774 -22.87815,-2.34754 -47.68349,-3.52321 -72.17969,-3.52733 z m 338.91601,28.44531 c 0.4774,0 1.34228,1.36074 1.92188,3.02344 0.6237,1.7892 3.46198,4.87665 6.95508,7.56445 5.8798,4.5245 8.9247,8.69349 8.8457,12.11329 -0.0228,0.9898 -3.8045,8.98497 -8.4043,17.76757 -4.5999,8.7825 -8.79687,16.11267 -9.32617,16.28907 -0.5293,0.1765 -1.25443,-1.13963 -1.61133,-2.92383 -0.4325,-2.1628 -2.46124,-4.92536 -6.08984,-8.28906 -2.9934,-2.7749 -6.1421,-6.72957 -6.9961,-8.78907 l -1.55273,-3.74414 5.35156,-10.75586 c 2.9434,-5.9155 6.40641,-13.34336 7.69531,-16.50586 1.289,-3.1625 2.73354,-5.75 3.21094,-5.75 z m -426.73437,8 c 3.09511,0 36.67918,4.84714 37.20117,5.36914 0.23083,0.2308 -0.46161,3.9546 -1.53906,8.27539 -6.85979,27.50881 -15.09267,45.05811 -26.66407,56.84571 -7.47104,7.6105 -13.62669,11.2179 -22.27539,13.0508 -7.48608,1.5864 -11.14777,1.6483 -19.22461,0.3242 -16.33781,-2.6784 -31.44485,-17.8686 -37.86718,-38.07422 -1.90553,-5.995 -2.70789,-10.79102 -1.80664,-10.79102 0.17866,0 3.63115,1.125 7.67382,2.5 13.17688,4.4817 29.34153,2.38714 40.32813,-5.22656 9.32978,-6.4656 18.52913,-18.92854 20.91797,-28.33984 0.79247,-3.122 1.46363,-3.9336 3.25586,-3.9336 z m 176.83594,0.002 c 4.10605,-0.0452 4.12148,1.63111 5.68359,6.49804 1.86028,5.7958 8.35556,15.67119 13.31445,20.24219 13.46692,12.4133 30.24856,16.24831 47.06836,10.75781 4.2121,-1.375 7.90524,-2.5 8.20704,-2.5 0.8554,0 -0.55381,5.82853 -3.25391,13.45703 -6.9135,19.53201 -21.29222,32.84321 -38.35742,35.51171 -7.33074,1.1467 -9.4297,1.1426 -16.43164,-0.029 -16.36792,-2.7396 -31.32262,-17.9504 -41.33399,-42.04491 -3.58363,-8.62469 -10.23438,-31.0066 -10.23438,-34.4414 0,-2.738 -0.90764,-2.50003 22.31251,-5.82813 6.6258,-0.94968 10.56176,-1.59592 13.02539,-1.62304 z m -42.63477,5.9707 1.12305,6.80273 c 3.05788,18.5162 14.55142,46.95665 26.06836,64.50585 2.80848,4.2795 5.10547,8.4972 5.10547,9.3731 0,0.8758 -2.07284,5.0088 -4.60743,9.1836 -14.41764,23.7478 -39.00074,46.2889 -64.61914,59.2519 -4.25029,2.1507 -7.88855,3.9102 -8.08398,3.9102 -0.19543,0 -3.91721,-1.8706 -8.27149,-4.1563 -27.41559,-14.3908 -52.28104,-37.8935 -65.95117,-62.3379 l -3.53711,-6.3261 5.41602,-8.3399 c 12.7609,-19.6485 21.42001,-40.16703 25.63281,-60.74023 1.05879,-5.1706 2.28323,-9.7555 2.72266,-10.1875 0.43943,-0.4321 9.12382,-0.47731 19.29882,-0.0996 l 18.5,0.6875 0.66407,22.5 c 0.36443,12.375 1.17779,27.45004 1.80859,33.50004 1.17846,11.3027 3.6784,29.4839 3.90234,28.3808 3.16272,-15.5795 4.80228,-33.4661 5.75,-62.72263 0.45353,-14.0008 1.06682,-21.45292 1.78321,-21.66602 0.60061,-0.1786 9.23774,-0.59533 19.19336,-0.92383 l 18.10156,-0.5957 z m -399.054694,2.38867 c 0.62469,0.0353 1.71723,0.48596 2.79688,1.19336 2.17552,1.4254 4.00397,1.60565 10.8359297,1.06445 12.00656,-0.951 13.93367,0.27386 18.6875,11.88086 2.0273603,4.95 5.3184503,12.20896 7.3125003,16.13086 1.99405,3.922 3.38066,7.37523 3.08204,7.67383 -0.29862,0.2986 -2.30285,-0.0773 -4.45313,-0.83594 -3.35528,-1.1841 -4.49438,-1.17312 -8.0351603,0.0762 -6.74349999,2.3793 -12.35303,1.91757 -15.74804,-1.29493 -3.7829697,-3.5797 -16.5450697,-34.16399 -14.9296897,-35.77929 0.0866,-0.0866 0.24294,-0.12114 0.45117,-0.10938 z m 671.783214,26.63867 c 0.2978,0 1.23392,1.65333 2.07812,3.67383 0.8443,2.0206 4.17354,6.06217 7.39844,8.98047 9.4314,8.53494 9.31144,9.95124 -2.50196,29.53904 -3.0872,5.1189 -6.35456,10.5417 -7.25976,12.0508 -2.0191,3.3661 -4.14649,3.5746 -4.14649,0.4063 0,-2.6042 -5.22987,-10.4181 -7.57617,-11.3184 -2.124,-0.815 -4.42383,-5.6798 -4.42383,-9.3594 0,-1.9247 2.14859,-7.0048 5.58789,-13.2168 3.07261,-5.54968 6.64812,-12.49081 7.94532,-15.42381 1.2971,-2.933 2.60054,-5.33203 2.89844,-5.33203 z M 17.814446,667.74253 c 5.03517,0.051 7.26398,2.7109 11.66602,10.0801 2.8758,4.8142 7.19012,11.5889 9.58789,15.0527 2.39778,3.4639 4.35937,6.7173 4.35937,7.2305 0,0.525 -1.89235,0.6721 -4.33007,0.3379 -3.0856,-0.4229 -5.28945,-0.098 -7.66211,1.1289 -1.83187,0.9473 -5.8466,1.9343 -8.91993,2.1914 -6.83049,0.5716 -8.79345,-0.6397 -12.8750003,-7.9434 -1.61158,-2.8839 -5.4637,-9.7441 -8.56054,-15.2441 -3.09684,-5.5 -5.63463,-10.5203 -5.64063,-11.1563 -0.008,-0.8636 0.89226,-0.879 3.55274,-0.062 2.70014,0.8287 5.0611,0.7646 9.75,-0.2637 3.9163403,-0.8589 6.7835503,-1.3746 9.0722603,-1.3515 z m 609.714854,23.1797 c 0.63963,0.1116 0.89843,1.1942 0.89843,3.1758 0,2.098 1.49623,4.5789 5.39063,8.9433 3.4446,3.8605 5.62633,7.3104 6.04883,9.5625 0.5989,3.1925 0.0761,4.3329 -5.57031,12.1543 -3.4273,4.7475 -8.65359,11.4859 -11.61329,14.9746 -2.9597,3.4887 -5.80286,6.3438 -6.31836,6.3438 -0.5156,0 -0.9375,-1.3096 -0.9375,-2.9102 0,-1.8653 -1.37909,-4.656 -3.84179,-7.7715 -7.9715,-10.0846 -8.20046,-13.3495 -1.53516,-21.8925 2.5424,-3.2587 7.28878,-9.8779 10.54688,-14.7071 3.74318,-5.5484 5.86557,-8.0591 6.93164,-7.873 z m -585.333994,16.4433 c 0.9485,-0.01 1.98853,0.064 3.07031,0.2207 4.21854,0.6101 5.04323,1.2032 8.66211,6.2168 2.2,3.048 7.0375,9.0549 10.75,13.3477 3.7125,4.2929 6.75,8.2819 6.75,8.8652 0,0.5834 -1.81165,1.0606 -4.02734,1.0606 -2.4888,0 -6.30112,1.1466 -9.97266,3 -3.622,1.8283 -7.48988,3 -9.90429,3 -4.2065,0 -4.06628,0.1285 -14.59375,-13.5 -4.97885,-6.4455 -12.50196,-17.3011 -12.50196,-18.041 0,-0.3755 1.4625,-0.4118 3.25,-0.082 3.17038,0.5847 10.48684,-1.0951 14.78321,-3.3945 0.82793,-0.4431 2.15354,-0.6802 3.73437,-0.6934 z m 557.429694,19.877 c 0.442,-0.1834 0.80273,1.3328 0.80273,3.3672 0,2.7143 1.1977,5.4995 4.5,10.4668 3.458,5.2015 4.5,7.6971 4.5,10.7754 0,3.8341 -0.58171,4.5682 -13.57421,17.1152 -7.4663,7.2103 -14.01132,13.1094 -14.54492,13.1094 -0.5552,0 -0.70787,-1.4045 -0.35547,-3.2832 0.4858,-2.5894 -0.13733,-4.7081 -2.95313,-10.0157 -5.0713,-9.5593 -4.94899,-13.97 0.53711,-19.248 2.2599,-2.1741 7.74907,-8.0031 12.19727,-12.9531 4.4481,-4.95 8.44862,-9.1507 8.89062,-9.334 z m -521.242194,15.584 12.77344,12.248 c 7.02488,6.7368 12.902334,12.5817 13.060554,12.9883 0.15823,0.4066 -1.20865,0.9826 -3.03711,1.2793 -1.828464,0.2967 -6.299134,2.4048 -9.933604,4.6836 -11.55132,7.2427 -11.13511,7.3742 -27.06836,-8.6484 -7.5625,-7.6051 -13.75,-14.1002 -13.75,-14.4356 0,-0.3354 2.24009,-0.825 4.97657,-1.0879 3.16641,-0.3043 6.5239,-1.5032 9.23437,-3.2969 2.62835,-1.7393 6.07486,-2.9941 9.00195,-3.2754 z m 489.294934,17.25776 c 0.4125,0 0.75,1.954 0.75,4.3515 0,2.858 1.02968,6.3876 2.98828,10.25 3.7956,7.4848 3.96262,12.6061 0.51562,15.8008 -1.3734,1.2728 -6.8859,5.6525 -12.25,9.73241 -11.1551,8.4845 -17.2117,12.3914 -17.3457,11.1895 -0.051,-0.4574 -0.0187,-2.7192 0.0723,-5.0254 0.0944,-2.4038 -0.72031,-6.1914 -1.90821,-8.87691 -2.0507,-4.636 -2.63794,-9.7887 -1.46484,-12.8457 0.3335,-0.8692 3.5825,-3.9438 7.2207,-6.8321 3.6382,-2.8883 9.77873,-8.0609 13.64453,-11.4941 3.8657,-3.4332 7.36485,-6.25 7.77735,-6.25 z m -458.15821,14.164 c 2.57795,-0.1125 4.32638,0.9548 10.99024,5.9707 4.64513,3.4965 11.2484,8.1575 14.67382,10.3575 3.42541,2.2 6.23133,4.5035 6.23633,5.1191 0.005,0.6155 -1.61027,1.3822 -3.58789,1.7031 -2.38634,0.3873 -5.23418,2.1172 -8.4707,5.14461 -2.6822,2.5089 -6.04473,5.0046 -7.47071,5.5468 -5.66127,2.1524 -7.08544,1.3532 -28.203124,-15.81441 -4.53287,-3.685 -8.245,-6.9784 -8.25,-7.3184 -0.005,-0.3401 1.80911,-0.862 4.03125,-1.1601 2.61779,-0.3511 5.99854,-2.02 9.60156,-4.7403 3.377054,-2.5497 7.020384,-4.3945 9.277354,-4.6972 0.41891,-0.056 0.80359,-0.095 1.17187,-0.1114 z m 421.92188,14.8282 c 0.5474,0 0.69109,1.8876 0.33789,4.4648 -0.4439,3.2382 -0.1178,5.5036 1.1875,8.25001 2.2305,4.6928 3.04702,12.3236 1.60742,15.0137 -0.9751,1.822 -11.88686,8.6479 -27.38086,17.1308 -5.1784,2.835 -7.76562,3.7643 -7.76562,2.7891 0,-0.1929 0.49074,-1.7562 1.08984,-3.4746 0.8446,-2.4229 0.71019,-4.8792 -0.59961,-10.9414 -2.2821,-10.5622 -1.08835,-13.6154 7.15235,-18.2754 3.2216,-1.8217 9.81022,-5.93241 14.64062,-9.13481 4.8304,-3.2024 9.20887,-5.8222 9.73047,-5.8222 z M 148.53516,801.0765 c 1.08736,0 7.2462,2.8477 13.68554,6.3281 6.43935,3.4804 13.28203,6.9274 15.20703,7.6602 5.43849,2.0701 5.67887,2.83 1.45313,4.5957 -2.14559,0.8964 -6.38649,4.3171 -9.42578,7.6015 -4.65042,5.0254 -6.16114,6.0387 -9.52735,6.3906 -2.64857,0.2769 -5.01358,-0.1764 -7,-1.3398 -28.2828,-16.5646 -30.48813,-18.3055 -24.15039,-19.0547 1.61873,-0.1914 4.66477,-2.2917 7.63477,-5.2617 4.94275,-4.9427 8.40756,-6.9199 12.12305,-6.9199 z m 342.66797,11.955 c 1.412,-0.1313 1.33222,1.1942 0.32422,4.2872 -0.811,2.4884 -0.7229,4.2034 0.375,7.2578 1.7527,4.8764 1.84857,11.0362 0.23047,14.8105 -1.2581,2.9345 -4.14998,4.4041 -24.20508,12.3028 -4.95,1.9496 -10.03353,3.9583 -11.29688,4.4648 -2.48496,0.9963 -4.20312,1.1892 -4.20312,0.4707 0,-0.2482 0.675,-3.0435 1.5,-6.2109 0.825,-3.1674 1.5,-8.2973 1.5,-11.4004 0,-8.673 2.205,-11.0714 15.5,-16.8594 6.05,-2.6338 13.25,-5.9547 16,-7.3809 2.04326,-1.0597 3.42818,-1.6634 4.27539,-1.7422 z m -90.71289,3.0528 c 10.17801,0.036 19.18383,2.8401 25.51367,8.4101 5.1382,4.5213 5.21414,6.0295 0.35937,7.0957 -1.6728,0.3674 -7.84258,2.6533 -13.71093,5.0782 -6.9112,2.8558 -12.17189,4.4082 -14.93555,4.4082 -5.44787,0 -13.13511,2.9188 -18.15235,6.8925 -2.15773,1.709 -4.58448,3.1075 -5.39257,3.1075 -1.53369,0 -9.16101,-7.6556 -12.10743,-12.1524 -0.93792,-1.4314 -2.09901,-3.9749 -2.58007,-5.6523 -1.05911,-3.6929 -0.12148,-4.6885 8.46093,-8.9805 11.01676,-5.5094 22.36691,-8.2425 32.54493,-8.207 z m -112.64649,3.7558 11.04102,0.4454 c 10.45606,0.4204 11.50066,0.6633 19.63476,4.5703 7.86833,3.7793 15.9082,10.419 15.9082,13.1367 0,1.2644 -11.94908,9.649 -15,10.5254 -4.58826,1.3179 -5.46189,1.2733 -12.5,-0.6348 -4.21432,-1.1426 -11.57647,-2.0609 -18.5,-2.3066 l -11.5,-0.4082 -0.30273,-3.9727 c -0.35285,-4.6123 2.97532,-11.9653 8.00977,-17.6992 z m -18.41211,0.5411 c 0.25275,0.01 0.45962,0.043 0.61719,0.1035 1.07742,0.4135 0.95509,1.1988 -0.60547,3.8437 -2.12473,3.6012 -4.36162,16.5065 -3.47656,20.0567 0.44642,1.7907 -1.29925,3.9027 -9.52539,11.5371 -5.53896,5.1406 -10.9511,11.074 -12.02735,13.1836 -2.40559,4.7153 -2.70797,4.8874 -6.66601,3.8125 -6.96385,-1.8913 -15.92441,-17.414 -13.13086,-22.7481 2.5065,-4.786 13.35369,-15.4582 20.41015,-20.0801 6.69327,-4.3839 20.61311,-9.841 24.4043,-9.7089 z m -78.84766,0.9453 8.17188,3.5136 c 4.49473,1.9316 11.9713,4.7239 16.61523,6.2051 8.88812,2.8348 10.74578,4.4308 6.88868,5.9199 -2.64511,1.0213 -5.14895,3.6898 -9.31641,9.9317 -1.5862,2.3758 -4.12708,4.9633 -5.64844,5.75 -4.21491,2.1796 -6.45568,1.7681 -18.36719,-3.3692 -21.28598,-9.1804 -23.67968,-10.8395 -17.87304,-12.3925 3.29465,-0.8811 5.99681,-3.3064 9.06445,-8.1348 1.46219,-2.3014 4.03078,-4.5431 6.44727,-5.625 z m 257.65821,9.2187 c 0.12314,0.011 0.18555,0.049 0.18555,0.1133 0,0.2669 -1.17232,2.7989 -2.60547,5.627 -2.26004,4.46 -2.46694,5.6165 -1.5586,8.7168 0.78874,2.6921 0.69715,4.9067 -0.375,8.9726 -0.78298,2.9693 -1.54402,5.4516 -1.6914,5.5176 -0.14737,0.066 -5.66953,2.8974 -12.26953,6.291 -6.6,3.3937 -16.11537,7.5466 -21.14649,9.2305 -13.03345,4.3623 -14.08486,4.1477 -10.42578,-2.1309 1.25113,-2.1469 2.17412,-6.2889 2.62891,-11.8066 0.38533,-4.675 1.10745,-9.2854 1.60547,-10.2461 0.99414,-1.9178 5.4147,-4.4225 16.83789,-9.5391 11.81926,-5.294 26.96732,-10.9091 28.81445,-10.7461 z m -94.60157,1.5313 c 0.43324,0 0.78711,1.5244 0.78711,3.3867 0,3.7144 6.29269,14.1259 10.57227,17.4922 1.33529,1.0504 2.40174,2.2948 2.36914,2.7656 -0.10333,1.4921 -16.70902,14.722 -22.69336,18.0801 -3.16071,1.7737 -8.76173,3.9112 -12.44531,4.75 -9.20183,2.0954 -23.65328,2.0746 -24.46289,-0.035 -1.07829,-2.81 0.31913,-14.8774 2.13672,-18.4472 2.35295,-4.6212 1.75825,-4.2691 8.57031,-5.0723 7.5488,-0.8901 13.71105,-4.5231 25.54883,-15.0606 4.85626,-4.3229 9.18396,-7.8593 9.61718,-7.8593 z m -80.48632,19.4258 c 1.47974,-0.01 3.47001,0.3602 7.02148,1.0937 4.23887,0.8756 12.10558,1.8601 17.48047,2.1875 5.3749,0.3275 9.77148,0.8192 9.77148,1.0938 0,0.2745 -1.12015,2.7948 -2.49023,5.5996 -2.63444,5.3932 -5.03185,15.9429 -4.00195,17.6093 0.37852,0.6124 -1.60214,0.9611 -5.19727,0.9141 -12.03905,-0.1583 -42.31055,-9.0037 -42.31055,-12.3633 0,-1.6808 12.02663,-13.1129 15.77149,-14.9922 1.50704,-0.7561 2.47534,-1.1359 3.95508,-1.1425 z m 120.60156,1.7753 c 0.71287,0.078 0.64311,1.3163 0.16602,5.4082 -0.99429,8.5279 -3.33069,16.089 -5.88672,19.0606 -1.54138,1.7919 -3.74719,2.8393 -7.16602,3.4004 -10.40503,1.7075 -30.44141,-0.8021 -30.44141,-3.8125 0,-0.4349 2.1375,-2.1975 4.75,-3.918 2.6125,-1.7206 7.31848,-5.3853 10.45704,-8.1445 3.1867,-2.8015 7.16077,-5.3177 9,-5.6973 2.84952,-0.5881 12.36605,-3.7635 18.13281,-6.0508 0.42591,-0.1689 0.75066,-0.2721 0.98828,-0.2461 z m -174.47852,8.7989 c 0.37541,0 1.497,2.2979 2.49414,5.1054 2.26135,6.367 8.98687,13.3145 14.48243,14.961 3.96205,1.187 4.03086,1.2884 5.14453,7.6836 1.47606,8.4761 4.43427,14.5936 9.73242,20.123 l 4.30469,4.4922 -2.125,2.2598 c -1.18161,1.2578 -4.31096,2.7303 -7.05274,3.3183 -6.97374,1.4956 -19.12293,0.8869 -21.48828,-1.0761 -1.52,-1.2615 -5.04039,-8.7879 -7.65039,-16.3594 -2.86781,-8.3195 -3.07138,-28.7238 -0.35742,-35.7578 1.00799,-2.6125 2.1402,-4.75 2.51562,-4.75 z m 230.07032,2.9824 c 1.66908,0.052 1.99978,1.5394 2.70508,4.5176 0.65126,2.75 1.22649,9.3266 1.27929,14.6152 0.091,9.1174 -0.0884,9.9854 -3.47265,16.75 -2.45107,4.8994 -4.09573,7.0828 -5.25,6.9668 -1.61769,-0.1626 -23.57994,-10.8983 -24.8086,-12.127 -0.33029,-0.3303 0.39146,-2.6523 1.60547,-5.1601 1.74348,-3.6015 2.07452,-5.5566 1.57617,-9.3027 -0.62875,-4.7263 -0.61692,-4.7479 3.15821,-6.4668 2.08346,-0.9487 7.69462,-3.5085 12.46875,-5.6895 6.06204,-2.7692 9.0692,-4.155 10.73828,-4.1035 z m -180.26758,21.0332 c 6.92419,-0.015 25.94659,2.819 33.59765,5.0059 2.12095,0.6063 3.75,1.7035 3.75,2.5253 0,0.7991 -0.37616,1.4532 -0.83789,1.4532 -0.46172,0 -4.79725,3.825 -9.63281,8.5 -4.83556,4.675 -8.84495,8.4629 -8.91015,8.4179 -2.81723,-1.9298 -7.76973,-2.836 -15.70118,-2.873 l -9.58398,-0.045 -4.63477,-6.25 c -5.61583,-7.5746 -8.33779,-12.4455 -7.45117,-13.3321 1.42474,-1.4247 12.62181,-3.3873 19.4043,-3.4023 z m 114.57812,1.9473 c 4.94905,0.076 9.54856,0.5501 13.02735,1.4785 9.06993,2.4207 24.74219,11.0241 24.74219,13.582 0,0.4324 -1.75461,0.5515 -3.90039,0.2637 -4.53702,-0.6085 -12.39471,2.5825 -20.24805,8.2246 -5.02369,3.6091 -5.72334,3.7234 -16.79102,2.7461 -2.97074,-0.2623 -5.65164,-1.3498 -8.09766,-3.2871 -4.92414,-3.9 -16.59224,-9.6852 -21.21289,-10.5176 -5.68177,-1.0236 -4.54127,-4.0377 2.96289,-7.8379 6.05185,-3.0647 18.62967,-4.8203 29.51758,-4.6523 z m -62.99023,7.9336 8.63086,2.6269 c 4.74639,1.4446 9.5289,2.8778 10.6289,3.1836 3.75998,1.0451 15.99399,7.5289 20.75,10.998 2.80233,2.0441 4.75,4.249 4.75,5.377 0,2.6492 -6.3086,9.374 -13.1582,14.0254 -3.15213,2.1406 -6.09248,3.8764 -6.53515,3.8574 -0.44268,-0.019 -3.93457,-2.3424 -7.75782,-5.164 -5.82406,-4.2985 -19.40409,-10.8008 -22.55859,-10.8008 -2.008,0 -17.99024,-6.2569 -17.99024,-7.043 0,-0.4691 5.22999,-4.498 11.6211,-8.9551 z m -110.17578,11.3828 c 0.36726,-0.01 0.67219,0.058 0.90429,0.2011 0.48374,0.299 1.60352,2.723 2.48829,5.3868 2.08335,6.2724 6.72425,13.551 10.01757,15.7089 1.4298,0.9368 2.47031,2.0133 2.3125,2.3926 -0.15781,0.3793 -3.30992,3.2402 -7.00586,6.3594 -3.69594,3.1191 -6.88938,5.6719 -7.0957,5.6719 -0.20632,0 -1.23156,-0.9532 -2.2793,-2.1172 -3.10686,-3.4516 -9.65284,-7.5769 -14.16796,-8.9297 -3.60306,-1.0795 -4.82929,-1.0242 -8.40625,0.3809 -2.30282,0.9046 -4.39529,1.4367 -4.65039,1.1816 -0.78961,-0.7896 7.48766,-10.8799 14.25781,-17.3809 5.40886,-5.1938 11.05415,-8.8029 13.625,-8.8554 z m 209.46875,1.2675 c 7.64404,-0.2563 15.76928,3.1676 23.39258,10.0528 5.72552,5.1711 17.43346,19.3751 16.63086,20.1777 -0.2597,0.2597 -2.30841,-0.2609 -4.55078,-1.1582 -5.55247,-2.2216 -10.74699,-1.2319 -17.94141,3.418 -3.2024,2.0699 -6.1281,4.2584 -6.50195,4.8633 -1.10227,1.7835 -2.01682,1.2945 -4.02344,-2.1504 -2.92698,-5.0249 -15.32702,-17.4144 -20.96875,-20.9512 -2.78862,-1.7481 -5.25889,-3.3193 -5.49024,-3.4922 -0.97715,-0.7302 4.79764,-5.7003 9.41993,-8.1074 3.18291,-1.6576 6.55864,-2.5358 10.0332,-2.6524 z m -44.22656,11.2715 c 0.57611,0 1.29021,0.073 2.20507,0.1856 2.19378,0.2709 7.46687,0.4961 11.7168,0.4961 l 7.72656,0 2.56641,4.7129 c 1.41104,2.5926 4.61697,6.7673 7.125,9.2754 3.88036,3.8802 4.36717,4.7906 3.26953,6.1132 -1.71452,2.0658 -9.4706,5.9444 -14.43164,7.2168 l 0,0 c -11.50151,2.9498 -24.10466,1.8961 -34.47266,-2.8828 -3.85628,-1.7775 -7.01172,-3.589 -7.01172,-4.0254 0,-0.4364 2.5875,-2.7983 5.75,-5.248 6.99011,-5.4147 10.54813,-9.1946 12.38477,-13.1582 0.95512,-2.0612 1.44353,-2.6931 3.17188,-2.6895 z m -110.3418,0.2285 c 0.79705,0.026 1.86105,0.2949 3.51172,0.7364 2.50422,0.6698 7.24695,1.2168 10.53906,1.2168 5.86449,0 5.98547,0.056 5.98047,2.75 -0.0159,7.8157 -4.44887,15.9642 -11.1211,20.4453 -2.29626,1.5422 -4.67066,2.7961 -5.27539,2.7851 -2.88821,-0.052 -18.24617,-6.2374 -23.35546,-9.4062 -5.36809,-3.3293 -11.24415,-7.9689 -11.24415,-8.8789 0,-0.2203 3.76311,-0.6895 8.36133,-1.043 10.26264,-0.7888 16.44359,-2.8266 19.35156,-6.3828 1.33607,-1.6339 1.92354,-2.2658 3.25196,-2.2227 z m 28.45703,0.377 c 3.10038,-0.1065 19.96336,4.2088 28.32812,7.332 3.9875,1.4888 7.25,3.2775 7.25,3.9766 0,1.9059 -11.51321,10.075 -19.7832,14.0351 -6.14338,2.9417 -8.68943,3.567 -16.25,3.9981 -9.72277,0.5544 -11.12812,-0.276 -6.55273,-3.875 5.61466,-4.4165 9.03924,-15.9392 6.625,-22.2891 -0.57682,-1.5172 -0.5951,-2.7569 -0.0469,-3.0957 0.0777,-0.048 0.223,-0.075 0.42969,-0.082 z m -108.08984,18.8418 c 1.48754,-0.07 3.00363,0.1616 5.24023,0.6621 5.43091,1.2154 14.42773,7.0879 14.42773,9.416 0,0.6881 -1.6875,2.8098 -3.75,4.7168 -2.0625,1.907 -5.11334,4.6907 -6.78125,6.1836 l -3.0332,2.7129 -9.64258,-8.7285 c -8.87597,-8.0352 -9.51937,-8.8646 -8.09961,-10.4375 0.84827,-0.9398 3.80318,-2.4592 6.56641,-3.377 2.12507,-0.7058 3.58472,-1.0784 5.07227,-1.1484 z m 269.29101,4.9297 c 0.34519,0.01 0.68193,0.03 1.00782,0.066 5.03212,0.5672 13.52533,5.2268 12.77343,7.0078 -0.2858,0.6768 -3.9165,3.9305 -8.0664,7.2305 -13.43976,10.6874 -11.42838,10.0309 -15.94141,5.2109 -2.16814,-2.3156 -5.02537,-5.4506 -6.34961,-6.9668 l -2.4082,-2.7578 2.79883,-2.9199 c 3.83558,-4.0035 11.00774,-6.9968 16.18554,-6.8711 z m -285.76562,6.8203 c 2.32197,0.023 17.29448,14.9621 16.92382,16.8867 -0.64254,3.3365 -3.57378,1.8091 -11.4707,-5.9746 -7.88717,-7.774 -9.47571,-10.9511 -5.45312,-10.9121 z m -6.69922,4.6836 8.92187,8.8789 c 4.9065,4.8838 8.91992,9.251 8.91992,9.7051 0,0.4542 -1.81662,3.5016 -4.03711,6.7715 -2.22048,3.2698 -4.19755,5.9453 -4.39453,5.9453 -0.86421,0 -19.06836,-22.1422 -19.06836,-23.1934 0,-0.6434 2.17408,-2.7308 4.83008,-4.6386 z m 308.61719,1.3008 c 0.5395,0 1.48627,0.6113 2.10547,1.3574 0.8909,1.0735 -0.73321,3.0566 -7.78321,9.5 -4.9005,4.4789 -9.41644,8.1426 -10.03515,8.1426 -1.23589,0 -2.45123,-2.4257 -1.90625,-3.8047 0.55582,-1.4065 16.54414,-15.1953 17.61914,-15.1953 z m 7.55664,5.043 c 1.3708,-0.072 9.6719,7.1085 9.6289,8.3281 -0.0221,0.6212 -4.65768,6.0282 -10.30078,12.0156 l -10.25976,10.8867 -4.16407,-6.8867 -4.1621,-6.8867 9.21289,-8.707 c 5.0675,-4.7886 9.58752,-8.726 10.04492,-8.75 z"
       id="path4733"
       inkscape:connector-curvature="0"
       sodipodi:nodetypes="ssscsccsscssscccssscsscccscsccscscscccssssccssccccsccsccsscccsssscsssccssscccssssssscsscsscssssccsccsscssscccsccsssssssccssccssssscssssssscccccsccssscccccsssssssssccscscsssccccssccccsscccccsssssssssccsccccssscsccsssssssscccsssccccccsscccsscsssscccsscssscccsscsccccsccscscssscccsscscscssccsssssccsscscccssscccssssssscccssssssccsssscccccsscscscccccsscsscsssccccccsssccccscscccssccsccccsscccccsscccccccscscccsccsssccscccccsccccssscccccscccccscsscscccsscccsscscscccsccssssssssccscsscccsscssscsscsssscccccsccccsscsscssssssscsssssccsssccccsssssccccsccccssscccccssssscsscccscssssssscscssscccssccscccscssssssscccccssscssscscccssssscscsccccsssscccccsscsscscssccccsscscsscsccsccccscscssssccssscsscccsscsssssccscsscscsscccssccscccccccssscsccccscssscscccscssccscscsccscscscssscccccssccsccssccscsscssscscccscssscssscssscccccsssccccsccccsssssssccscsscscssccccscscssssssccssccssccccccsccccccsssscccsscscsscsccsssssccccscsscccccscccsscccccccscccscssccsssscscccccccc" />
  </g>
</svg>
